<svg width="135" height="81" viewBox="0 0 135 81" fill="none" xmlns="http://www.w3.org/2000/svg">
<path d="M69.66 27C69.075 27.018 68.5125 27.261 68.0985 27.684L56.2275 39.519L48.915 32.229C46.8675 30.096 43.56 33.39 45.6975 35.433L54.621 44.334C55.5075 45.2205 56.9475 45.2205 57.8385 44.334L71.316 30.8925C72.801 29.4525 71.7075 27 69.6645 27H69.66ZM2.25 45H15.75C16.9965 45 18 46.0035 18 47.25C18 48.4965 16.9965 49.5 15.75 49.5H2.25C1.0035 49.5 0 48.4965 0 47.25C0 46.0035 1.0035 45 2.25 45ZM2.25 27H15.75C16.9965 27 18 28.0035 18 29.25C18 30.4965 16.9965 31.5 15.75 31.5H2.25C1.0035 31.5 0 30.4965 0 29.25C0 28.0035 1.0035 27 2.25 27ZM2.25 9H15.75C16.9965 9 18 10.0035 18 11.25C18 12.4965 16.9965 13.5 15.75 13.5H2.25C1.0035 13.5 0 12.4965 0 11.25C0 10.0035 1.0035 9 2.25 9ZM110.25 58.5C104.062 58.5 99 63.5625 99 69.75C99 75.9375 104.062 81 110.25 81C116.438 81 121.5 75.9375 121.5 69.75C121.5 63.5625 116.438 58.5 110.25 58.5ZM110.25 63C114.003 63 117 65.997 117 69.75C117 73.503 114.003 76.5 110.25 76.5C106.497 76.5 103.5 73.503 103.5 69.75C103.5 65.997 106.497 63 110.25 63ZM51.75 58.5C45.5625 58.5 40.5 63.5625 40.5 69.75C40.5 75.9375 45.5625 81 51.75 81C57.9375 81 63 75.9375 63 69.75C63 63.5625 57.9375 58.5 51.75 58.5ZM51.75 63C55.503 63 58.5 65.997 58.5 69.75C58.5 73.503 55.503 76.5 51.75 76.5C47.997 76.5 45 73.503 45 69.75C45 65.997 47.997 63 51.75 63ZM29.25 0C25.551 0 22.5 3.051 22.5 6.75V56.25C22.5 59.949 25.551 63 29.25 63H38.25C41.292 63.045 41.292 58.455 38.25 58.5H29.25C27.963 58.5 27 57.537 27 56.25V6.75C27 5.463 27.963 4.5 29.25 4.5H87.75C89.037 4.5 90 5.463 90 6.75V58.5H65.25C62.28 58.5 62.334 63.045 65.25 63H96.75C99.72 63 99.693 58.5 96.75 58.5H94.5V18H113.521L130.5 44.532V56.25C130.5 57.537 129.537 58.5 128.25 58.5H123.75C120.807 58.5 120.807 63 123.75 63H128.25C131.949 63 135 59.949 135 56.25V43.875C135 43.4475 134.879 43.02 134.649 42.66L116.649 14.535C116.235 13.8915 115.524 13.5 114.75 13.5H94.5V6.75C94.5 3.051 91.449 0 87.75 0H29.25Z" fill="black"/>
</svg>
