<svg width="55" height="55" viewBox="0 0 55 55" fill="none" xmlns="http://www.w3.org/2000/svg">
<g clip-path="url(#clip0_699_1221)">
<path d="M45.8335 32.4018C47.7319 32.4018 49.271 30.863 49.271 28.9643C49.271 27.0659 47.7319 25.5268 45.8335 25.5268C43.9351 25.5268 42.396 27.0659 42.396 28.9643C42.396 30.863 43.9351 32.4018 45.8335 32.4018Z" stroke="black" stroke-width="2" stroke-linecap="round" stroke-linejoin="round"/>
<path d="M13.7502 34.6935C15.0158 34.6935 16.0418 33.6675 16.0418 32.4018C16.0418 31.1364 15.0158 30.1102 13.7502 30.1102C12.4845 30.1102 11.4585 31.1364 11.4585 32.4018C11.4585 33.6675 12.4845 34.6935 13.7502 34.6935Z" stroke="black" stroke-width="2" stroke-linecap="round" stroke-linejoin="round"/>
<path d="M25.2083 46.1518C27.7397 46.1518 29.7917 44.0999 29.7917 41.5685C29.7917 39.0374 27.7397 36.9852 25.2083 36.9852C22.677 36.9852 20.625 39.0374 20.625 41.5685C20.625 44.0999 22.677 46.1518 25.2083 46.1518Z" stroke="black" stroke-width="2" stroke-linecap="round" stroke-linejoin="round"/>
<path d="M53.8543 19.4632V45.2856C53.8539 45.842 53.6513 46.3792 53.2839 46.7972C52.9168 47.215 52.4099 47.4849 51.8583 47.5567L3.73329 53.8358C3.41003 53.878 3.08152 53.8505 2.76971 53.7556C2.45788 53.6605 2.16991 53.5001 1.92503 53.2849C1.68015 53.0697 1.48399 52.8048 1.34965 52.5078C1.21531 52.2108 1.14588 51.8886 1.146 51.5625C1.14571 51.0716 1.29638 50.5922 1.57758 50.1898C1.85879 49.7871 2.25693 49.481 2.71808 49.3121C3.7304 48.9431 4.58031 48.229 5.11858 47.2956C5.65682 46.3623 5.849 45.2689 5.66136 44.2079C5.47372 43.1468 4.91824 42.1859 4.09248 41.4936C3.26675 40.8015 2.22351 40.4223 1.146 40.4227V27.374C1.1458 27.0485 1.21498 26.7266 1.34894 26.4298C1.48289 26.133 1.67855 25.8683 1.92287 25.6529L29.125 1.71656C29.5668 1.32822 30.1413 1.12473 30.7291 1.14822C40.9156 1.54468 53.8543 8.34634 53.8543 19.4632Z" stroke="black" stroke-width="2" stroke-linecap="round" stroke-linejoin="round"/>
<path d="M53.8541 19.4632L1.41162 26.3038" stroke="black" stroke-width="2" stroke-linecap="round" stroke-linejoin="round"/>
<path d="M30.9377 30.6831C30.6212 30.6831 30.3647 30.4266 30.3647 30.1101C30.3647 29.7939 30.6212 29.5372 30.9377 29.5372" stroke="black" stroke-width="2"/>
<path d="M30.9375 30.6831C31.254 30.6831 31.5104 30.4266 31.5104 30.1101C31.5104 29.7939 31.254 29.5372 30.9375 29.5372" stroke="black" stroke-width="2"/>
<path d="M41.2502 40.9956C40.9337 40.9956 40.6772 40.7391 40.6772 40.4226C40.6772 40.1064 40.9337 39.8497 41.2502 39.8497" stroke="black" stroke-width="2"/>
<path d="M41.25 40.9956C41.5665 40.9956 41.8229 40.7391 41.8229 40.4226C41.8229 40.1064 41.5665 39.8497 41.25 39.8497" stroke="black" stroke-width="2"/>
</g>
<defs>
<clipPath id="clip0_699_1221">
<rect width="55" height="55" fill="white"/>
</clipPath>
</defs>
</svg>
