<svg width="54" height="54" viewBox="0 0 54 54" fill="none" xmlns="http://www.w3.org/2000/svg">
<path d="M2 27C2 33.6304 4.63392 39.9893 9.32233 44.6777C14.0107 49.3661 20.3696 52 27 52C33.6304 52 39.9893 49.3661 44.6777 44.6777C49.3661 39.9893 52 33.6304 52 27C52 20.3696 49.3661 14.0107 44.6777 9.32233C39.9893 4.63392 33.6304 2 27 2C20.3696 2 14.0107 4.63392 9.32233 9.32233C4.63392 14.0107 2 20.3696 2 27V27Z" stroke="#222222" stroke-width="3" stroke-linecap="round" stroke-linejoin="round"/>
<path d="M22 32C22 32.9889 22.2932 33.9556 22.8427 34.7779C23.3921 35.6001 24.173 36.241 25.0866 36.6194C26.0002 36.9978 27.0055 37.0969 27.9755 36.9039C28.9454 36.711 29.8363 36.2348 30.5355 35.5355C31.2348 34.8363 31.711 33.9454 31.9039 32.9755C32.0969 32.0055 31.9978 31.0002 31.6194 30.0866C31.241 29.173 30.6001 28.3921 29.7779 27.8427C28.9556 27.2932 27.9889 27 27 27C26.0111 27 25.0444 26.7068 24.2222 26.1574C23.3999 25.6079 22.759 24.827 22.3806 23.9134C22.0022 22.9998 21.9031 21.9945 22.0961 21.0246C22.289 20.0546 22.7652 19.1637 23.4645 18.4645C24.1637 17.7652 25.0546 17.289 26.0246 17.0961C26.9945 16.9031 27.9998 17.0022 28.9134 17.3806C29.827 17.759 30.6079 18.3999 31.1573 19.2222C31.7068 20.0444 32 21.0111 32 22" stroke="#222222" stroke-width="3" stroke-linecap="round" stroke-linejoin="round"/>
<path d="M27 13.665V16.9984" stroke="#222222" stroke-width="3" stroke-linecap="round" stroke-linejoin="round"/>
<path d="M27 37V40.3333" stroke="#222222" stroke-width="3" stroke-linecap="round" stroke-linejoin="round"/>
</svg>
