<svg width="64" height="61" viewBox="0 0 64 61" fill="none" xmlns="http://www.w3.org/2000/svg">
<path d="M62.25 19.751C62.3451 21.5988 62.1767 23.4507 61.75 25.251C60.979 29.5057 59.2744 33.5366 56.7587 37.0534C54.2429 40.5703 50.9788 43.4855 47.2012 45.5895C43.4236 47.6935 39.2265 48.9338 34.9121 49.2211C30.5977 49.5084 26.2732 48.8356 22.25 47.251C21.013 46.8204 19.8367 46.2322 18.75 45.501L17 44.501C17 44.251 16.75 44.001 16.75 43.751C15.7457 41.0301 15.2377 38.1512 15.25 35.251V33.751C15.0452 33.0195 14.9607 32.2596 15 31.501C14.9799 25.3166 16.9038 19.2823 20.5 14.251C17.4117 12.6375 13.9843 11.7807 10.5 11.751H8.75C10.6163 9.77973 12.8643 8.20903 15.3571 7.13453C17.85 6.06002 20.5355 5.50421 23.25 5.501C25.1919 5.48708 27.1266 5.7394 29 6.25097C33.6738 3.42703 39.0396 1.9558 44.5 2.00101C49.4665 1.97013 54.3629 3.17275 58.75 5.501C61.0495 9.89896 62.2504 14.7882 62.25 19.751Z" stroke="black" stroke-width="3" stroke-linecap="round" stroke-linejoin="round"/>
<path d="M16.75 44.501L15.75 51.751L15 59.251L8.50002 52.751L2 46.2509L9.5 45.501L16.75 44.501Z" stroke="black" stroke-width="3" stroke-linecap="round" stroke-linejoin="round"/>
<path d="M57.5 34.501C50.3163 34.4351 43.4492 31.535 38.3928 26.4318C33.3363 21.3285 30.4997 14.435 30.5 7.25101" stroke="black" stroke-width="3" stroke-linecap="round" stroke-linejoin="round"/>
<path d="M46 15.501C47.5188 15.501 48.75 14.2697 48.75 12.751C48.75 11.2322 47.5188 10.0009 46 10.0009C44.4812 10.0009 43.25 11.2322 43.25 12.751C43.25 14.2697 44.4812 15.501 46 15.501Z" fill="black"/>
</svg>
