<svg width="37" height="45" viewBox="0 0 37 45" fill="none" xmlns="http://www.w3.org/2000/svg">
<path d="M36 19.5938C36 33.3137 21.9475 41.7662 19.0272 43.3762C18.8654 43.4655 18.6837 43.5123 18.4989 43.5123C18.3141 43.5123 18.1324 43.4655 17.9706 43.3762C15.0481 41.7662 1 33.3137 1 19.5938C1 8.65625 7.5625 1 18.5 1C29.4375 1 36 8.65625 36 19.5938Z" stroke="white" stroke-width="2" stroke-linecap="round" stroke-linejoin="round"/>
<path d="M9.75098 18.5C9.75098 20.8206 10.6728 23.0462 12.3138 24.6872C13.9547 26.3281 16.1803 27.25 18.501 27.25C20.8216 27.25 23.0472 26.3281 24.6882 24.6872C26.3291 23.0462 27.251 20.8206 27.251 18.5C27.251 16.1794 26.3291 13.9538 24.6882 12.3128C23.0472 10.6719 20.8216 9.75 18.501 9.75C16.1803 9.75 13.9547 10.6719 12.3138 12.3128C10.6728 13.9538 9.75098 16.1794 9.75098 18.5V18.5Z" stroke="white" stroke-width="2" stroke-linecap="round" stroke-linejoin="round"/>
</svg>
