<svg width="67" height="57" viewBox="0 0 67 57" fill="none" xmlns="http://www.w3.org/2000/svg">
<path d="M37.716 26.6159C45.6963 25.6017 53.5769 30.1516 56.6887 37.5698M39.9182 5.80069L48.2073 12.4319C49.9623 13.836 51.0276 15.7826 51.3551 17.8401C47.6358 16.4297 43.4998 16.0184 39.3511 16.8388L36.086 17.4845C34.6907 17.7604 33.3624 18.3054 32.1755 19.0891C28.6053 21.4463 26.8645 25.5346 27.3325 29.516C20.8491 29.5916 14.3623 28.9911 7.97598 27.7139C3.27754 26.7742 0.230461 22.2036 1.17015 17.5051C1.57048 15.5035 2.66377 13.7071 4.25773 12.4319L12.5468 5.80069C20.5479 -0.60023 31.9171 -0.60023 39.9182 5.80069ZM17.1035 28.8748C20.5016 29.2775 23.9163 29.4921 27.3322 29.5188C27.5254 31.1623 28.098 32.794 29.0769 34.2766L30.1758 34.0123C32.5367 33.5088 34.9633 33.3999 37.3569 33.6885L37.5326 34.2349L31.7499 44.2521C30.931 45.6704 30.642 47.2492 30.8214 48.7594C29.392 49.3188 27.8388 49.6217 26.2325 49.6217C21.1911 49.6217 17.1042 45.5348 17.1042 40.4934L17.1035 28.8748ZM64.3384 31.2652L65.4118 34.4157C67.3628 40.1422 64.3022 46.366 58.5757 48.317C57.4986 48.6839 56.3726 48.8803 55.2384 48.9005L54.3739 48.8818C53.6101 46.0314 52.2788 43.3695 50.4645 41.0536L44.3984 51.5547C42.3818 55.0475 37.9156 56.2442 34.4228 54.2277C30.93 52.2111 29.7333 47.7449 31.7499 44.2521L37.8142 33.7486C35.2729 33.3876 32.6872 33.4767 30.1758 34.0123L29.0769 34.2766C25.7365 29.2173 27.1269 22.4224 32.1755 19.0891C33.3624 18.3054 34.6907 17.7604 36.086 17.4845L39.3511 16.8388C50.118 14.7096 60.7988 20.8762 64.3384 31.2652Z" stroke="black" stroke-width="2" stroke-linecap="round"/>
</svg>
