<svg width="54" height="54" viewBox="0 0 54 54" fill="none" xmlns="http://www.w3.org/2000/svg">
<path d="M1 17.9566H12.7113C13.5042 17.9574 14.283 18.1667 14.9695 18.5635C15.6561 18.9603 16.2261 19.5307 16.6226 20.2174C17.4544 21.6219 18.6441 22.7804 20.07 23.5748C21.4959 24.3692 23.1071 24.771 24.7391 24.7392V4.39134C23.1071 4.35951 21.4959 4.76131 20.07 5.5557C18.6441 6.3501 17.4544 7.50865 16.6226 8.91308C16.2261 9.59979 15.6561 10.1702 14.9695 10.567C14.283 10.9638 13.5042 11.1731 12.7113 11.1739H1" stroke="black" stroke-width="1.9" stroke-linecap="round" stroke-linejoin="round"/>
<path d="M48.4785 4.3913H53.0003" stroke="black" stroke-width="1.9" stroke-linecap="round" stroke-linejoin="round"/>
<path d="M24.7393 4.3913H31.5219" stroke="black" stroke-width="1.9" stroke-linecap="round" stroke-linejoin="round"/>
<path d="M48.4785 11.1739H53.0003" stroke="black" stroke-width="1.9" stroke-linecap="round" stroke-linejoin="round"/>
<path d="M24.7393 11.1739H31.5219" stroke="black" stroke-width="1.9" stroke-linecap="round" stroke-linejoin="round"/>
<path d="M48.4785 17.9565H53.0003" stroke="black" stroke-width="1.9" stroke-linecap="round" stroke-linejoin="round"/>
<path d="M24.7393 17.9565H31.5219" stroke="black" stroke-width="1.9" stroke-linecap="round" stroke-linejoin="round"/>
<path d="M48.4785 24.7391H53.0003" stroke="black" stroke-width="1.9" stroke-linecap="round" stroke-linejoin="round"/>
<path d="M24.7393 24.7391H31.5219" stroke="black" stroke-width="1.9" stroke-linecap="round" stroke-linejoin="round"/>
<path d="M34.3476 28.1304C33.598 28.1304 32.8792 27.8327 32.3492 27.3027C31.8192 26.7727 31.5215 26.0539 31.5215 25.3043V3.82609C31.5215 3.07656 31.8192 2.35774 32.3492 1.82774C32.8792 1.29775 33.598 1 34.3476 1C35.0971 1 35.8159 1.29775 36.3459 1.82774C36.8759 2.35774 37.1737 3.07656 37.1737 3.82609V25.3043C37.1737 26.0539 36.8759 26.7727 36.3459 27.3027C35.8159 27.8327 35.0971 28.1304 34.3476 28.1304Z" stroke="black" stroke-width="1.9" stroke-miterlimit="10"/>
<path d="M39.9999 28.1304C39.2504 28.1304 38.5316 27.8327 38.0016 27.3027C37.4716 26.7727 37.1738 26.0539 37.1738 25.3043V3.82609C37.1738 3.07656 37.4716 2.35774 38.0016 1.82774C38.5316 1.29775 39.2504 1 39.9999 1C40.7494 1 41.4683 1.29775 41.9983 1.82774C42.5283 2.35774 42.826 3.07656 42.826 3.82609V25.3043C42.826 26.0539 42.5283 26.7727 41.9983 27.3027C41.4683 27.8327 40.7494 28.1304 39.9999 28.1304Z" stroke="black" stroke-width="1.9" stroke-miterlimit="10"/>
<path d="M45.6523 28.1304C44.9027 28.1304 44.1839 27.8327 43.6539 27.3027C43.1239 26.7727 42.8262 26.0539 42.8262 25.3043V3.82609C42.8262 3.07656 43.1239 2.35774 43.6539 1.82774C44.1839 1.29775 44.9027 1 45.6523 1C46.4018 1 47.1206 1.29775 47.6506 1.82774C48.1806 2.35774 48.4783 3.07656 48.4783 3.82609V25.3043C48.4783 26.0539 48.1806 26.7727 47.6506 27.3027C47.1206 27.8327 46.4018 28.1304 45.6523 28.1304Z" stroke="black" stroke-width="1.9" stroke-miterlimit="10"/>
<path d="M38.3044 27.5652V32.087C38.2985 34.6335 37.2842 37.074 35.4835 38.8747C33.6828 40.6754 31.2423 41.6897 28.6957 41.6957H26.4349C25.3874 41.7016 24.3845 42.1203 23.6437 42.861C22.903 43.6018 22.4843 44.6047 22.4783 45.6522V50.1739C22.4783 50.9234 22.1806 51.6423 21.6506 52.1723C21.1206 52.7023 20.4018 53 19.6523 53C18.9027 53 18.1839 52.7023 17.6539 52.1723C17.1239 51.6423 16.8262 50.9234 16.8262 50.1739V45.6522C16.8321 43.1056 17.8464 40.6651 19.6471 38.8644C21.4478 37.0637 23.8883 36.0494 26.4349 36.0435H28.6957C29.6463 36.0424 30.5648 35.699 31.283 35.0763C32.0012 34.4535 32.4712 33.593 32.607 32.6522" stroke="black" stroke-width="1.9" stroke-linecap="round" stroke-linejoin="round"/>
</svg>
