<svg width="60" height="60" viewBox="0 0 60 60" fill="none" xmlns="http://www.w3.org/2000/svg">
<path fill-rule="evenodd" clip-rule="evenodd" d="M19.1907 51.7754C17.6766 53.2895 15.2217 53.2895 13.7076 51.7754C12.5144 50.5822 12.2615 48.8048 12.949 47.3639L12.6361 47.051C11.1952 47.7384 9.41778 47.4855 8.22459 46.2923C6.71048 44.7782 6.71048 42.3234 8.22459 40.8093C9.73869 39.2952 12.1935 39.2952 13.7076 40.8093C14.0285 41.1302 14.2814 41.4934 14.4663 41.8809L19.1858 37.1595C19.6804 37.8534 20.239 38.5158 20.8616 39.1384C21.4848 39.7616 22.1479 40.3207 22.8426 40.8157L18.1216 45.5348C18.5082 45.7196 18.8705 45.9721 19.1907 46.2923C20.7048 47.8064 20.7048 50.2613 19.1907 51.7754ZM32.55 5.52141L32.5847 5.48303C35.6129 2.45483 42.9775 4.90967 49.0339 10.9661C55.0903 17.0225 57.5452 24.387 54.5169 27.4152L42.7938 39.1384C36.7374 45.1948 26.918 45.1948 20.8616 39.1384C14.8052 33.082 14.8052 23.2626 20.8616 17.2062L32.55 5.52141ZM32.5847 5.48303C29.5565 8.51124 32.0114 15.8758 38.0678 21.9322C44.1242 27.9886 51.4887 30.4434 54.5169 27.4152C57.5452 24.387 55.0903 17.0225 49.0339 10.9661C42.9775 4.90967 35.6129 2.45483 32.5847 5.48303ZM39.8955 12.7938C38.8861 13.8032 39.7044 16.258 41.7232 18.2768C43.742 20.2956 46.1968 21.1139 47.2062 20.1045C48.2156 19.0951 47.3973 16.6403 45.3785 14.6215C43.3597 12.6026 40.9049 11.7844 39.8955 12.7938Z" stroke="black" stroke-width="2" stroke-linecap="round"/>
</svg>
