<svg width="66" height="57" viewBox="0 0 66 57" fill="none" xmlns="http://www.w3.org/2000/svg">
<path d="M57.5165 18.5783L58.9224 19.0909C63.4226 20.7273 65.7441 25.702 64.1077 30.2021C63.7222 31.2621 63.1336 32.2368 62.3749 33.0714L61.8055 33.6977C56.4206 39.6211 50.1625 44.6872 43.2478 48.7208L32.9901 54.7044C32.8818 54.7676 32.7479 54.7676 32.6396 54.7044L22.3819 48.7208C15.4672 44.6872 9.20913 39.6211 3.82425 33.6977L3.25484 33.0714C0.0337886 29.5282 0.294906 24.0447 3.83807 20.8237C4.67267 20.0649 5.64729 19.4763 6.70731 19.0909L8.11518 18.574M21.318 39.477L10.201 24.6548C6.74381 20.0453 7.67801 13.5059 12.2876 10.0487C13.1847 9.37589 14.1843 8.8521 15.2482 8.49749L17.1654 7.8584C18.4904 7.41674 19.8294 7.03268 21.1788 6.70624L21.8124 6.55709C20.6773 8.6526 20.3463 11.1666 21.0406 13.5966M21.0406 13.5966L27.4359 35.9821M21.0406 13.5966C19.8019 9.26122 21.8267 4.65836 25.8596 2.64192C30.238 0.452692 35.3917 0.452692 39.7702 2.64192C43.803 4.65836 45.8278 9.26122 44.5892 13.5966M38.1923 35.9816L44.5892 13.5966M44.5892 13.5966C45.2831 11.168 44.9528 8.65541 43.8192 6.5606C45.3823 6.91429 46.9327 7.34786 48.4643 7.8584L50.3816 8.49749C55.8478 10.3196 58.802 16.228 56.9799 21.6942C56.6253 22.7581 56.1016 23.7577 55.4287 24.6548L44.3097 39.4753" stroke="black" stroke-width="2" stroke-linecap="round"/>
<path fill-rule="evenodd" clip-rule="evenodd" d="M50.2024 44.1543L50.2031 50.7835C50.2031 53.6645 47.8676 56 44.9867 56H20.6431C17.7621 56 15.4266 53.6645 15.4266 50.7835L15.4233 44.1513C17.6576 45.7941 19.9802 47.3197 22.3819 48.7208L32.6397 54.7044C32.7479 54.7676 32.8818 54.7676 32.9901 54.7044L43.2478 48.7208C45.6482 47.3206 47.9694 45.796 50.2024 44.1543Z" stroke="black" stroke-width="2" stroke-linecap="round"/>
</svg>
