<svg width="65" height="65" viewBox="0 0 65 65" fill="none" xmlns="http://www.w3.org/2000/svg">
<path d="M25.5937 4.0625H49.1562C51.9037 4.0625 54.5386 5.15397 56.4814 7.09673C58.4242 9.03949 59.5156 11.6745 59.5156 14.4219M59.5156 14.4219H26.4062C20.4803 14.4219 14.7971 16.776 10.6068 20.9662C6.41655 25.1565 4.0625 30.8398 4.0625 36.7657C4.0625 42.6916 6.41655 48.3748 10.6068 52.565C14.7971 56.7553 20.4803 59.1094 26.4062 59.1094H56.4688V46.3125L38.7969 52.0001C36.6399 52.7315 34.3706 53.0754 32.0938 53.0157C29.4888 53.0162 26.9875 51.9955 25.1267 50.1726C23.2658 48.3498 22.1938 45.87 22.1406 43.2656C22.1406 40.6259 23.1893 38.0943 25.0558 36.2278C26.9224 34.3612 29.454 33.3125 32.0938 33.3125H40.625C45.6351 33.3125 50.44 31.3222 53.9827 27.7796C57.5254 24.2369 59.5156 19.4321 59.5156 14.4219Z" stroke="black" stroke-width="3" stroke-linecap="round" stroke-linejoin="round"/>
<path d="M29.8594 14.422V33.5156" stroke="black" stroke-width="3" stroke-linecap="round" stroke-linejoin="round"/>
<path d="M9.14062 22.547L23.9688 37.3751" stroke="black" stroke-width="3" stroke-linecap="round" stroke-linejoin="round"/>
<path d="M6.09375 46.1094H22.5469" stroke="black" stroke-width="3" stroke-linecap="round" stroke-linejoin="round"/>
<path d="M33.3125 53.4218V59.1094" stroke="black" stroke-width="3" stroke-linecap="round" stroke-linejoin="round"/>
<path d="M41.0313 23.7656C42.3775 23.7656 43.4688 22.6743 43.4688 21.3281C43.4688 19.9819 42.3775 18.8906 41.0313 18.8906C39.6851 18.8906 38.5938 19.9819 38.5938 21.3281C38.5938 22.6743 39.6851 23.7656 41.0313 23.7656Z" fill="black"/>
</svg>
