<svg width="55" height="55" viewBox="0 0 55 55" fill="none" xmlns="http://www.w3.org/2000/svg">
<g clip-path="url(#clip0_699_1239)">
<path d="M6.34324 36.4375C4.7057 35.0123 3.39416 33.2513 2.49772 31.2741C1.60128 29.297 1.14096 27.15 1.14803 24.9791C1.27701 19.5271 3.16472 14.2627 6.52969 9.97099C9.89467 5.67928 14.5567 2.59013 19.8205 1.16414C19.9321 1.13385 20.0505 1.14191 20.1569 1.18703C20.2634 1.23215 20.3515 1.31171 20.4073 1.41294C20.4631 1.51417 20.4832 1.6312 20.4645 1.74525C20.4458 1.8593 20.3893 1.96375 20.3041 2.04185C19.2197 2.97258 18.3342 4.11252 17.7006 5.39344C17.0671 6.67436 16.6984 8.06993 16.6168 9.49664C16.615 10.9439 16.9086 12.3763 17.4796 13.7062C18.0506 15.0361 18.8869 16.2355 19.9374 17.231C21.5668 15.5961 22.6821 13.5201 23.1457 11.2589C23.162 11.1808 23.1962 11.1075 23.2457 11.0449C23.2952 10.9823 23.3586 10.932 23.4309 10.8982C23.5032 10.8644 23.5824 10.8479 23.6622 10.8501C23.742 10.8522 23.8201 10.8729 23.8905 10.9106C26.3889 12.3058 28.467 14.346 29.908 16.8181C31.3491 19.2903 32.1003 22.1039 32.0832 24.9654C32.0848 26.3802 31.8905 27.7885 31.5057 29.15" stroke="black" stroke-width="2" stroke-linecap="round" stroke-linejoin="round"/>
<path d="M20.0084 32.0214C20.8689 31.0329 21.4258 29.817 21.6125 28.5198C19.5617 28.503 17.5996 27.6812 16.149 26.2315C14.6984 24.7817 13.8755 22.8201 13.8575 20.7693C12.4863 20.9634 11.2061 21.5689 10.1862 22.5058C9.16628 23.4427 8.45452 24.6669 8.14492 26.0167C7.83532 27.3666 7.94245 28.7786 8.45217 30.0664C8.96188 31.3541 9.8502 32.4569 10.9998 33.2291" stroke="black" stroke-width="2" stroke-linecap="round" stroke-linejoin="round"/>
<path d="M10.3125 41.0208C10.3125 43.7708 16.7292 53.8541 30.4792 53.8541C47.8958 53.8541 56.556 34.9983 49.7292 30.0208C39.6458 22.6875 37.4688 33.8914 28.6458 37.3541C19.8229 40.8169 10.3125 36.9279 10.3125 41.0208Z" stroke="black" stroke-width="2" stroke-linecap="round" stroke-linejoin="round"/>
<path d="M46.0098 28.0042C46.9035 26.84 49.7979 24.5231 47.8225 22.3483C47.3354 21.9809 47.0004 21.4473 46.8813 20.8489C46.7621 20.2506 46.8671 19.6293 47.1762 19.1033C47.2866 18.8894 47.4384 18.6995 47.6228 18.5447C47.8072 18.3899 48.0206 18.2733 48.2504 18.2017C48.4803 18.1301 48.722 18.1048 48.9617 18.1274C49.2014 18.15 49.4342 18.22 49.6466 18.3333C51.0777 19.0219 52.2522 20.1482 53.0001 21.5492C53.748 22.9501 54.0302 24.5528 53.806 26.125C53.3974 28.1301 52.4534 29.9871 51.0744 31.499" stroke="black" stroke-width="2" stroke-miterlimit="10" stroke-linecap="round"/>
<path d="M29.5625 46.5209C34.1458 47.4375 38.3052 47.5063 44.2292 40.1042" stroke="black" stroke-width="2" stroke-linecap="round" stroke-linejoin="round"/>
</g>
<defs>
<clipPath id="clip0_699_1239">
<rect width="55" height="55" fill="white"/>
</clipPath>
</defs>
</svg>
