<svg width="52" height="54" viewBox="0 0 52 54" fill="none" xmlns="http://www.w3.org/2000/svg">
<path d="M3.77379 4.21136L30.7691 11.8845C32.5983 12.4853 34.1959 13.6388 35.3417 15.186C36.4875 16.7332 37.125 18.5978 37.1663 20.5226V46.4616C37.2433 47.2805 37.1196 48.1059 36.806 48.8663C36.4925 49.6267 35.9984 50.2993 35.3666 50.8259C34.7347 51.3526 33.9841 51.7174 33.1796 51.8888C32.3752 52.0602 31.541 52.0331 30.7494 51.8099L8.41862 45.7385C6.58919 45.1693 4.98513 44.0391 3.83351 42.5079C2.68189 40.9767 2.04106 39.122 2.00174 37.2065V8.94258C1.96121 7.14985 2.63127 5.41383 3.86576 4.11322C5.10025 2.81262 6.79898 2.05297 8.59139 2H42.7194C44.683 2 46.5663 2.78007 47.9548 4.16861C49.3434 5.55715 50.1235 7.44041 50.1235 9.4041V31.5004C50.1148 32.4986 49.9091 33.4853 49.5184 34.4039C49.1277 35.3225 48.5595 36.1549 47.8465 36.8535C47.1334 37.5521 46.2895 38.1032 45.3631 38.475C44.4367 38.8469 43.446 39.0322 42.4479 39.0205H37.1663" stroke="#222222" stroke-width="3" stroke-linecap="round" stroke-linejoin="round"/>
<path d="M26.9861 29.7637C27.1691 29.7637 27.348 29.818 27.5002 29.9196C27.6524 30.0213 27.7711 30.1659 27.8411 30.335C27.9112 30.5041 27.9295 30.6902 27.8938 30.8697C27.8581 31.0493 27.7699 31.2142 27.6405 31.3436C27.5111 31.4731 27.3462 31.5612 27.1666 31.5969C26.9871 31.6326 26.801 31.6143 26.6319 31.5442C26.4628 31.4742 26.3182 31.3556 26.2165 31.2034C26.1148 31.0512 26.0605 30.8722 26.0605 30.6892C26.0605 30.4437 26.1581 30.2083 26.3316 30.0347C26.5052 29.8612 26.7406 29.7637 26.9861 29.7637" stroke="#222222" stroke-width="3" stroke-linecap="round" stroke-linejoin="round"/>
</svg>
