<svg width="214" height="81" viewBox="0 0 214 81" fill="none" xmlns="http://www.w3.org/2000/svg">
<path d="M18.7187 35.25C18.7187 36.75 19.4632 37.9286 20.9522 38.7857C22.5121 39.6429 24.9229 40.5714 28.1845 41.5714C32.0842 42.8571 35.2749 44.1071 37.7565 45.3214C40.3091 46.5357 42.5071 48.4286 44.3506 51C46.2651 53.5714 47.2223 56.9286 47.2223 61.0714C47.2223 74.3571 38.6429 81 21.484 81C18.6478 81 15.1735 80.75 11.0611 80.25C7.01953 79.75 3.3325 79.1071 0 78.3214C0.141809 76.8214 0.425426 74.6429 0.850852 71.7857C1.34718 68.8571 1.80806 66.6786 2.23349 65.25C4.71514 65.6071 8.43761 66.0357 13.4009 66.5357C18.4351 67.0357 22.2285 67.2857 24.7811 67.2857C26.2701 67.2857 27.1564 67.1786 27.44 66.9643C27.8654 66.6786 28.1845 66.2143 28.3972 65.5714C28.6808 64.8571 28.8226 64.25 28.8226 63.75C28.8226 62.3214 28.149 61.25 26.8018 60.5357C25.4547 59.75 23.1503 58.8214 19.8887 57.75C15.9889 56.5357 12.7628 55.2857 10.2102 54C7.65767 52.7143 5.42418 50.7143 3.50976 48C1.59535 45.2857 0.638139 41.7143 0.638139 37.2857C0.638139 34.1429 1.34718 31.0714 2.76527 28.0714C4.18335 25 5.63689 22.9286 7.12588 21.8571C8.26035 21.0714 10.6002 20.3214 14.1454 19.6071C17.6906 18.8929 21.0231 18.5357 24.1429 18.5357C32.0842 18.5357 38.5719 19.2857 43.6062 20.7857C43.5352 22.2143 43.2871 24.1786 42.8617 26.6786C42.5071 29.1786 42.1172 31.4643 41.6917 33.5357L39.2455 33.4286C30.028 32.7857 24.1429 32.4643 21.5904 32.4643C20.5268 32.4643 19.9241 32.5 19.7823 32.5714C19.4987 32.7143 19.2505 33.0357 19.0378 33.5357C18.8251 34.0357 18.7187 34.6071 18.7187 35.25Z" fill="#00407C"/>
<path d="M56.1188 18.75H75.263V79.8214H56.1188V18.75Z" fill="#00407C"/>
<path d="M138.995 45.9643V76.5C134.244 78.0714 129.742 79.2143 125.487 79.9286C121.233 80.6429 117.652 81 114.745 81C105.102 81 97.551 78.4643 92.0914 73.3929C86.6318 68.3214 83.902 60.5357 83.902 50.0357C83.902 39.3214 86.7736 31.3214 92.5168 26.0357C98.2601 20.6786 106.343 18 116.766 18C122.226 18 128.784 18.8214 136.442 20.4643C136.442 21.8929 136.3 24.0357 136.017 26.8929C135.733 29.6786 135.449 31.6429 135.166 32.7857L131.337 32.6786C126.657 32.5357 123.006 32.4643 120.382 32.4643C112.512 32.4643 108.222 32.9286 107.513 33.8571C106.379 35.2143 105.563 37.3214 105.067 40.1786C104.641 43.0357 104.429 45.7857 104.429 48.4286C104.429 53.2143 104.961 56.9286 106.024 59.5714C107.088 62.2143 108.718 64.0714 110.916 65.1429C113.115 66.2143 116.093 66.75 119.85 66.75H120.276V45.9643H138.995Z" fill="#00407C"/>
<path d="M183.133 66.4286H165.478L162.288 79.8214H142.718L162.288 18.75H187.281L206 79.8214H186.324L183.133 66.4286ZM174.199 31.9286L167.924 54.5357H180.581L174.625 31.9286H174.199Z" fill="#00407C"/>
<circle cx="202.449" cy="11.2211" r="10.1586" stroke="#00407C" stroke-width="2"/>
<path d="M206.535 15H203.7L203.19 12.84C203.17 12.76 203.135 12.625 203.085 12.435C203.045 12.235 202.995 12.09 202.935 12C202.875 11.9 202.79 11.835 202.68 11.805C202.4 11.815 201.99 11.82 201.45 11.82V15H198.75V6.525C199.96 6.435 201.09 6.39 202.14 6.39C203.09 6.39 203.86 6.47 204.45 6.63C205.04 6.78 205.48 7.045 205.77 7.425C206.07 7.795 206.22 8.305 206.22 8.955C206.22 9.565 206.08 10.045 205.8 10.395C205.52 10.735 205.07 10.94 204.45 11.01V11.1C204.8 11.13 205.09 11.245 205.32 11.445C205.56 11.635 205.72 11.88 205.8 12.18L206.535 15ZM201.45 10.125C201.54 10.135 201.715 10.14 201.975 10.14C202.745 10.14 203.195 10.075 203.325 9.945C203.445 9.825 203.505 9.545 203.505 9.105C203.505 8.695 203.395 8.415 203.175 8.265C202.965 8.115 202.615 8.04 202.125 8.04C202.015 8.04 201.79 8.05 201.45 8.07V10.125Z" fill="#00407C"/>
</svg>
