<svg width="62" height="62" viewBox="0 0 62 62" fill="none" xmlns="http://www.w3.org/2000/svg">
<circle cx="31" cy="31" r="31" fill="#D9D9D9"/>
<path d="M31.5003 30.7395C30.0973 30.7395 28.7258 30.3235 27.5592 29.544C26.3927 28.7645 25.4835 27.6566 24.9466 26.3604C24.4096 25.0642 24.2692 23.6379 24.5429 22.2618C24.8166 20.8858 25.4922 19.6218 26.4843 18.6297C27.4764 17.6376 28.7404 16.962 30.1164 16.6883C31.4925 16.4146 32.9188 16.5551 34.215 17.092C35.5112 17.6289 36.6191 18.5381 37.3986 19.7047C38.178 20.8712 38.5941 22.2427 38.5941 23.6458C38.5941 25.5271 37.8467 27.3315 36.5164 28.6618C35.186 29.9921 33.3817 30.7395 31.5003 30.7395ZM31.5003 18.9895C30.5794 18.9895 29.6792 19.2626 28.9135 19.7742C28.1477 20.2859 27.5509 21.0131 27.1985 21.8639C26.8461 22.7147 26.7539 23.6509 26.9335 24.5541C27.1132 25.4574 27.5567 26.287 28.2079 26.9382C28.859 27.5894 29.6887 28.0329 30.5919 28.2125C31.4952 28.3922 32.4314 28.3 33.2822 27.9476C34.133 27.5951 34.8602 26.9983 35.3719 26.2326C35.8835 25.4669 36.1566 24.5667 36.1566 23.6458C36.1566 22.4108 35.666 21.2265 34.7928 20.3533C33.9196 19.4801 32.7352 18.9895 31.5003 18.9895ZM46.0648 44.0853C45.8373 44.3128 45.5303 44.4428 45.2087 44.4478C44.8871 44.4428 44.58 44.3128 44.3525 44.0853C44.1246 43.8574 43.9945 43.5496 43.9899 43.2273C43.9898 42.2522 43.8573 41.3388 43.4843 40.5199C43.1091 39.6966 42.4974 38.9837 41.5636 38.4025C39.711 37.2494 36.5898 36.6145 31.5003 36.6145C26.4109 36.6145 23.2897 37.2494 21.437 38.4025C20.5032 38.9837 19.8915 39.6966 19.5164 40.5199C19.1431 41.3393 19.0107 42.2533 19.0107 43.2291C19.0107 43.5523 18.8823 43.8623 18.6538 44.0909C18.4252 44.3194 18.1152 44.4478 17.792 44.4478C17.4688 44.4478 17.1588 44.3194 16.9302 44.0909C16.7016 43.8623 16.5732 43.5523 16.5732 43.2291C16.5732 40.9548 17.2218 39.2682 18.2494 38.0094C19.2801 36.7469 20.7074 35.8963 22.2928 35.325C25.4716 34.1793 29.2222 34.177 31.5003 34.177C33.7785 34.177 37.529 34.1793 40.7079 35.325C42.2933 35.8963 43.7205 36.7469 44.7512 38.0094C45.7786 39.2679 46.4271 40.9539 46.4274 43.2274C46.4228 43.5496 46.2927 43.8574 46.0648 44.0853Z" fill="#A5A4A4" stroke="#D9D9D9" stroke-width="0.5"/>
</svg>
