<svg width="102" height="102" viewBox="0 0 102 102" fill="none" xmlns="http://www.w3.org/2000/svg">
<g clip-path="url(#clip0_164_4169)">
<path d="M31.8751 79.6875H76.5001C76.5001 79.6875 79.6876 79.6875 79.6876 82.875V95.625C79.6876 95.625 79.6876 98.8125 76.5001 98.8125H31.8751C31.8751 98.8125 28.6876 98.8125 28.6876 95.625V82.875C28.6876 82.875 28.6876 79.6875 31.8751 79.6875Z" stroke="#F2C703" stroke-width="4" stroke-linecap="round" stroke-linejoin="round"/>
<path d="M38.2501 60.5625H82.8751C82.8751 60.5625 86.0626 60.5625 86.0626 63.75V76.5C86.0626 76.5 86.0626 79.6875 82.8751 79.6875H38.2501C38.2501 79.6875 35.0626 79.6875 35.0626 76.5V63.75C35.0626 63.75 35.0626 60.5625 38.2501 60.5625Z" stroke="#F2C703" stroke-width="4" stroke-linecap="round" stroke-linejoin="round"/>
<path d="M19.1251 41.4375H63.7501C63.7501 41.4375 66.9376 41.4375 66.9376 44.625V57.375C66.9376 57.375 66.9376 60.5625 63.7501 60.5625H19.1251C19.1251 60.5625 15.9376 60.5625 15.9376 57.375V44.625C15.9376 44.625 15.9376 41.4375 19.1251 41.4375Z" stroke="#F2C703" stroke-width="4" stroke-linecap="round" stroke-linejoin="round"/>
<path d="M25.5 22.3125H70.125C70.125 22.3125 73.3125 22.3125 73.3125 25.5V38.25C73.3125 38.25 73.3125 41.4375 70.125 41.4375H25.5C25.5 41.4375 22.3125 41.4375 22.3125 38.25V25.5C22.3125 25.5 22.3125 22.3125 25.5 22.3125Z" stroke="#F2C703" stroke-width="4" stroke-linecap="round" stroke-linejoin="round"/>
<path d="M92.4375 31.875V44.625" stroke="#F2C703" stroke-width="4" stroke-linecap="round" stroke-linejoin="round"/>
<path d="M86.0625 38.25H98.8125" stroke="#F2C703" stroke-width="4" stroke-linecap="round" stroke-linejoin="round"/>
<path d="M9.56262 3.1875V15.9375" stroke="#F2C703" stroke-width="4" stroke-linecap="round" stroke-linejoin="round"/>
<path d="M3.18762 9.5625H15.9376" stroke="#F2C703" stroke-width="4" stroke-linecap="round" stroke-linejoin="round"/>
</g>
<defs>
<clipPath id="clip0_164_4169">
<rect width="102" height="102" fill="white"/>
</clipPath>
</defs>
</svg>
