<svg width="100" height="100" viewBox="0 0 100 100" fill="none" xmlns="http://www.w3.org/2000/svg">
<g clip-path="url(#clip0_164_4201)">
<path d="M75.9125 18.75H24.1208" stroke="#F2C703" stroke-width="3" stroke-linecap="round" stroke-linejoin="round"/>
<path d="M53.1667 46.3708C52.7755 46.8226 52.2918 47.1849 51.7483 47.4332C51.2048 47.6816 50.6142 47.8101 50.0167 47.8101C49.4191 47.8101 48.8286 47.6816 48.2851 47.4332C47.7416 47.1849 47.2578 46.8226 46.8667 46.3708L25.1334 21.2916C24.51 20.5721 24.1519 19.6608 24.1185 18.7094C24.0852 17.758 24.3786 16.8239 24.95 16.0625L34.1667 3.74998C34.5548 3.2325 35.0581 2.81248 35.6366 2.5232C36.2152 2.23392 36.8532 2.08331 37.5 2.08331H62.5C63.1469 2.08331 63.7848 2.23392 64.3634 2.5232C64.942 2.81248 65.4452 3.2325 65.8334 3.74998L75.0834 16.0625C75.6548 16.8239 75.9482 17.758 75.9149 18.7094C75.8815 19.6608 75.5234 20.5721 74.9 21.2916L53.1667 46.3708Z" stroke="#F2C703" stroke-width="3" stroke-linecap="round" stroke-linejoin="round"/>
<path d="M60.4335 85.4167H85.4335V97.9167H60.4335V85.4167Z" stroke="#F2C703" stroke-width="3" stroke-linecap="round" stroke-linejoin="round"/>
<path d="M81.25 85.4167V79.0376C81.25 79.0376 92.1042 68.2917 96.6917 63.7251C97.0804 63.3376 97.3887 62.8772 97.5989 62.3702C97.8091 61.8632 97.9171 61.3197 97.9167 60.7709V28.9084C97.9167 28.9084 87.5 25.1292 87.5 54.1667L75.1292 66.5376L77.9959 54.0376C79.425 48.0459 73.95 45.4876 70.9625 50.1292C68.3415 55.4264 66.2064 60.9505 64.5834 66.6334V85.4167" stroke="#F2C703" stroke-width="3" stroke-linecap="round" stroke-linejoin="round"/>
<path d="M14.6001 85.4167H39.6001V97.9167H14.6001V85.4167Z" stroke="#F2C703" stroke-width="3" stroke-linecap="round" stroke-linejoin="round"/>
<path d="M18.75 85.4167V79.0376C18.75 79.0376 8.49587 68.2376 3.47087 63.6876C3.03644 63.2987 2.68848 62.8229 2.44947 62.2911C2.21046 61.7592 2.08574 61.1831 2.08337 60.6001V28.9084C2.08337 28.9084 12.5 25.1292 12.5 54.1667L24.8709 66.5376L22.0042 54.0376C20.5709 48.0459 26.05 45.4876 29.0375 50.1292C31.6586 55.4264 33.7937 60.9505 35.4167 66.6334V85.4167" stroke="#F2C703" stroke-width="3" stroke-linecap="round" stroke-linejoin="round"/>
<path d="M35.5792 2.56244L49.3292 47.7499" stroke="#F2C703" stroke-width="3" stroke-linecap="round" stroke-linejoin="round"/>
<path d="M64.4543 2.56244L50.8751 47.7208" stroke="#F2C703" stroke-width="3" stroke-linecap="round" stroke-linejoin="round"/>
</g>
<defs>
<clipPath id="clip0_164_4201">
<rect width="100" height="100" fill="white"/>
</clipPath>
</defs>
</svg>
