<svg width="104" height="104" viewBox="0 0 104 104" fill="none" xmlns="http://www.w3.org/2000/svg">
<path d="M94.25 55.2499V94.2499C94.25 95.9737 93.5653 97.6273 92.3464 98.8463C91.1274 100.065 89.4738 100.75 87.75 100.75H16.25C14.5261 100.75 12.8728 100.065 11.6538 98.8463C10.4348 97.6273 9.75 95.9737 9.75 94.2499V55.2499" stroke="#F2C703" stroke-width="4" stroke-linecap="round" stroke-linejoin="round"/>
<path d="M81.25 71.4999C81.25 68.0523 79.8802 64.7456 77.4423 62.3076C75.0044 59.8697 71.6976 58.4999 68.25 58.4999C64.8024 58.4999 61.4956 59.8697 59.0577 62.3076C56.6198 64.7456 55.25 68.0523 55.25 71.4999V100.75H81.25V71.4999Z" stroke="#F2C703" stroke-width="4" stroke-linecap="round" stroke-linejoin="round"/>
<path d="M39 68.2499H26C24.2051 68.2499 22.75 69.7051 22.75 71.4999V84.4999C22.75 86.2948 24.2051 87.7499 26 87.7499H39C40.7949 87.7499 42.25 86.2948 42.25 84.4999V71.4999C42.25 69.7051 40.7949 68.2499 39 68.2499Z" stroke="#F2C703" stroke-width="4" stroke-linecap="round" stroke-linejoin="round"/>
<path d="M69.875 81.2924C68.9776 81.2924 68.25 80.5649 68.25 79.6674C68.25 78.77 68.9776 78.0424 69.875 78.0424" stroke="#F2C703" stroke-width="4"/>
<path d="M69.875 81.2924C70.7724 81.2924 71.5 80.5649 71.5 79.6674C71.5 78.77 70.7724 78.0424 69.875 78.0424" stroke="#F2C703" stroke-width="4"/>
<path d="M3.25024 32.4999C3.43566 35.6095 4.80158 38.5308 7.06882 40.6669C9.33611 42.803 12.3336 43.9924 15.4486 43.9924C18.5636 43.9924 21.561 42.803 23.8283 40.6669C26.0956 38.5308 27.4615 35.6095 27.6469 32.4999C27.6469 35.7294 28.9298 38.8266 31.2134 41.1101C33.497 43.3935 36.5941 44.6766 39.8236 44.6766C43.053 44.6766 46.1502 43.3935 48.4339 41.1101C50.7171 38.8266 52.0002 35.7294 52.0002 32.4999C52.1857 35.6095 53.5516 38.5308 55.8188 40.6669C58.086 42.803 61.0833 43.9924 64.1986 43.9924C67.3138 43.9924 70.3112 42.803 72.5784 40.6669C74.8456 38.5308 76.2114 35.6095 76.3969 32.4999C76.3969 35.7294 77.68 38.8266 79.9632 41.1101C82.2469 43.3935 85.3439 44.6766 88.5736 44.6766C91.8032 44.6766 94.9002 43.3935 97.1839 41.1101C99.4671 38.8266 100.75 35.7294 100.75 32.4999L94.8136 5.80661C94.6558 5.08415 94.2563 4.4371 93.6813 3.97226C93.1062 3.50743 92.3895 3.25263 91.6502 3.24994H12.3502C11.6108 3.25263 10.8943 3.50743 10.3192 3.97226C9.74409 4.4371 9.34464 5.08415 9.18691 5.80661L3.25024 32.4999Z" stroke="#F2C703" stroke-width="4" stroke-linecap="round" stroke-linejoin="round"/>
</svg>
