<svg width="102" height="102" viewBox="0 0 102 102" fill="none" xmlns="http://www.w3.org/2000/svg">
<path d="M3.1875 73.3125H70.8517C72.3583 73.3125 73.8161 72.7789 74.9667 71.8065C76.1174 70.834 76.8864 69.4855 77.1375 68L88.3448 8.5C88.5958 7.01454 89.3649 5.66601 90.5155 4.69354C91.6661 3.72107 93.124 3.18752 94.6305 3.1875H98.8125" stroke="#F2C703" stroke-width="4" stroke-linecap="round" stroke-linejoin="round"/>
<path d="M12.75 90.8437C12.75 92.9571 13.5896 94.984 15.084 96.4784C16.5784 97.9729 18.6053 98.8124 20.7188 98.8124C22.8322 98.8124 24.8591 97.9729 26.3535 96.4784C27.8479 94.984 28.6875 92.9571 28.6875 90.8437C28.6875 88.7302 27.8479 86.7034 26.3535 85.2089C24.8591 83.7145 22.8322 82.8749 20.7188 82.8749C18.6053 82.8749 16.5784 83.7145 15.084 85.2089C13.5896 86.7034 12.75 88.7302 12.75 90.8437Z" stroke="#F2C703" stroke-width="4" stroke-linecap="round" stroke-linejoin="round"/>
<path d="M54.1875 90.8437C54.1875 92.9571 55.0271 94.984 56.5215 96.4784C58.0159 97.9729 60.0428 98.8124 62.1562 98.8124C64.2697 98.8124 66.2966 97.9729 67.791 96.4784C69.2854 94.984 70.125 92.9571 70.125 90.8437C70.125 88.7302 69.2854 86.7034 67.791 85.2089C66.2966 83.7145 64.2697 82.8749 62.1562 82.8749C60.0428 82.8749 58.0159 83.7145 56.5215 85.2089C55.0271 86.7034 54.1875 88.7302 54.1875 90.8437Z" stroke="#F2C703" stroke-width="4" stroke-linecap="round" stroke-linejoin="round"/>
<path d="M41.4375 54.1874V11.6874" stroke="#F2C703" stroke-width="4" stroke-linecap="round" stroke-linejoin="round"/>
<path d="M41.4375 11.6874L57.375 27.6249" stroke="#F2C703" stroke-width="4" stroke-linecap="round" stroke-linejoin="round"/>
<path d="M41.4375 11.6874L25.5 27.6249" stroke="#F2C703" stroke-width="4" stroke-linecap="round" stroke-linejoin="round"/>
</svg>
