<svg width="102" height="102" viewBox="0 0 102 102" fill="none" xmlns="http://www.w3.org/2000/svg">
<path d="M11.216 60.0997L2.7513 88.7104C2.43171 89.7831 2.32654 90.9082 2.44178 92.0216C2.55703 93.1349 2.89043 94.2147 3.42296 95.1992C3.95549 96.1837 4.67672 97.0536 5.54546 97.7594C6.4142 98.4651 7.41344 98.9929 8.48614 99.3125C10.6525 99.9579 12.9866 99.7163 14.9749 98.6408C15.9594 98.1083 16.8293 97.387 17.5351 96.5183C18.2409 95.6496 18.7686 94.6503 19.0882 93.5776L27.5529 64.9669C31.6804 64.4864 35.5752 62.8014 38.7514 60.122C41.9275 57.4426 44.2446 53.8873 45.4134 49.8997L45.9213 48.1644L5.03677 36.0176L4.44424 37.7528C3.25626 41.7313 3.26486 45.9712 4.46897 49.9448C5.67307 53.9184 8.01949 57.4499 11.216 60.0997Z" stroke="#00407C" stroke-width="4" stroke-linecap="round" stroke-linejoin="round"/>
<path d="M55.2324 17.5221C55.3944 16.9858 55.4483 16.4227 55.391 15.8654C55.3338 15.3081 55.1664 14.7677 54.8987 14.2756C54.631 13.7835 54.2682 13.3494 53.8315 12.9985C53.3947 12.6477 52.8926 12.387 52.3544 12.2317L19.469 2.49727C18.9327 2.33525 18.3695 2.28131 17.8122 2.33858C17.2549 2.39586 16.7146 2.56321 16.2224 2.83092C15.7303 3.09864 15.2962 3.4614 14.9454 3.89816C14.5945 4.33493 14.3338 4.837 14.1785 5.37527L5.03662 36.0175L45.9212 48.1644L55.2324 17.5221Z" stroke="#00407C" stroke-width="4" stroke-linecap="round" stroke-linejoin="round"/>
<path d="M7.4917 27.8491L48.3339 39.996" stroke="#00407C" stroke-width="4" stroke-linecap="round" stroke-linejoin="round"/>
<path d="M27.6375 4.95215L23.3628 19.2575" stroke="#00407C" stroke-width="4" stroke-linecap="round" stroke-linejoin="round"/>
<path d="M43.9745 9.77686L39.7422 24.0822" stroke="#00407C" stroke-width="4" stroke-linecap="round" stroke-linejoin="round"/>
<path d="M10.8774 91.1229L12.1048 87.0598" stroke="#00407C" stroke-width="4" stroke-linecap="round" stroke-linejoin="round"/>
<path d="M57.2215 42.1121C62.1162 40.9536 67.1319 40.3852 72.1617 40.4192C87.3559 40.4192 99.672 45.1594 99.672 51C99.672 56.8407 87.3559 61.5809 72.1617 61.5809C65.5412 61.6998 58.9513 60.654 52.6929 58.4913" stroke="#00407C" stroke-width="4" stroke-linecap="round" stroke-linejoin="round"/>
<path d="M44.6094 67.9294V89.0912C44.6094 94.9319 56.9255 99.6721 72.1197 99.6721C87.3138 99.6721 99.63 94.9319 99.63 89.0912V51" stroke="#00407C" stroke-width="4" stroke-linecap="round" stroke-linejoin="round"/>
<path d="M61.5386 60.7769V76.3943C61.5386 77.5168 61.9845 78.5933 62.7782 79.387C63.5719 80.1807 64.6484 80.6267 65.7709 80.6267C66.8934 80.6267 67.9699 80.1807 68.7637 79.387C69.5574 78.5933 70.0033 77.5168 70.0033 76.3943C70.0033 75.2718 70.4492 74.1953 71.2429 73.4016C72.0366 72.6079 73.1132 72.1619 74.2356 72.1619C75.3581 72.1619 76.4346 72.6079 77.2284 73.4016C78.0221 74.1953 78.468 75.2718 78.468 76.3943C78.468 78.078 79.1369 79.6928 80.3274 80.8834C81.518 82.074 83.1328 82.7428 84.8165 82.7428C86.5003 82.7428 88.115 82.074 89.3056 80.8834C90.4962 79.6928 91.1651 78.078 91.1651 76.3943V58.6184" stroke="#00407C" stroke-width="4" stroke-linecap="round" stroke-linejoin="round"/>
</svg>
