<svg width="106" height="106" viewBox="0 0 106 106" fill="none" xmlns="http://www.w3.org/2000/svg">
<path d="M20.0596 33.2358H85.9406" stroke="#00407C" stroke-width="4" stroke-linecap="round" stroke-linejoin="round"/>
<path d="M103.509 103.509C103.507 99.9303 102.413 96.4378 100.372 93.4984C98.3312 90.559 95.4415 88.3128 92.0895 87.0604L70.5684 79.8311" stroke="#00407C" stroke-width="4" stroke-linecap="round" stroke-linejoin="round"/>
<path d="M35.4317 79.8311L13.9106 87.0604C10.5586 88.3128 7.66889 90.559 5.62818 93.4984C3.58746 96.4378 2.493 99.9303 2.49121 103.509" stroke="#00407C" stroke-width="4" stroke-linecap="round" stroke-linejoin="round"/>
<path d="M46.3242 61.7842C47.9606 63.2483 50.0935 64.0336 52.2886 63.9802H53.5316C55.7281 64.0338 57.8624 63.2486 59.5004 61.7842" stroke="#00407C" stroke-width="4" stroke-linecap="round" stroke-linejoin="round"/>
<path d="M48.6079 44.216C48.1427 43.4871 47.4886 42.898 46.7152 42.5113C45.9418 42.1246 45.078 41.9548 44.2158 42.0199C43.3536 41.9548 42.4898 42.1246 41.7164 42.5113C40.943 42.898 40.2889 43.4871 39.8237 44.216" stroke="#00407C" stroke-width="4" stroke-linecap="round" stroke-linejoin="round"/>
<path d="M66.1762 44.216C65.711 43.4871 65.0569 42.898 64.2835 42.5113C63.5101 42.1246 62.6464 41.9548 61.7842 42.0199C60.9219 41.9548 60.0582 42.1246 59.2848 42.5113C58.5114 42.898 57.8573 43.4871 57.3921 44.216" stroke="#00407C" stroke-width="4" stroke-linecap="round" stroke-linejoin="round"/>
<path d="M20.0596 84.9917V103.509" stroke="#00407C" stroke-width="4" stroke-linecap="round" stroke-linejoin="round"/>
<path d="M85.9404 84.9917V103.509" stroke="#00407C" stroke-width="2.17" stroke-linecap="round" stroke-linejoin="round"/>
<path d="M45.6917 7.5376C26.2348 11.2752 24.5966 30.2402 26.5598 42.0197C22.7212 43.9391 23.9246 52.5607 28.6636 54.7084C29.3205 55.0057 29.8941 55.4601 30.3338 56.0315C30.7734 56.6029 31.0657 57.2738 31.1847 57.9849C33.1304 69.5975 46.7985 77.1563 52.9122 77.1563C59.026 77.1563 72.6765 69.5975 74.6398 57.9849C74.7588 57.2738 75.051 56.6029 75.4907 56.0315C75.9304 55.4601 76.504 55.0057 77.1608 54.7084C81.9087 52.5519 83.0989 43.9391 79.2646 42.0197C81.2279 30.2402 79.7302 11.2752 60.3085 7.5376" stroke="#00407C" stroke-width="4" stroke-linecap="round" stroke-linejoin="round"/>
<path d="M63.9804 33.2357H42.02L45.8719 6.264C46.021 5.21701 46.5429 4.25898 47.3416 3.5659C48.1404 2.87282 49.1625 2.49122 50.22 2.49121H55.7804C56.8379 2.49122 57.86 2.87282 58.6587 3.5659C59.4575 4.25898 59.9794 5.21701 60.1285 6.264L63.9804 33.2357Z" stroke="#00407C" stroke-width="4" stroke-linecap="round" stroke-linejoin="round"/>
<path d="M28.8438 82.0405V103.509" stroke="#00407C" stroke-width="4" stroke-linecap="round" stroke-linejoin="round"/>
<path d="M77.1562 82.0405V103.509" stroke="#00407C" stroke-width="4" stroke-linecap="round" stroke-linejoin="round"/>
<path d="M28.8438 94.7246H77.1565V103.509H28.8438V94.7246Z" stroke="#00407C" stroke-width="4" stroke-linecap="round" stroke-linejoin="round"/>
<path d="M53 94.7246V85.9404" stroke="#00407C" stroke-width="4" stroke-linecap="round" stroke-linejoin="round"/>
<path d="M53 24.4516V15.6675" stroke="#00407C" stroke-width="4" stroke-linecap="round" stroke-linejoin="round"/>
</svg>
