<svg width="84" height="107" viewBox="0 0 84 107" fill="none" xmlns="http://www.w3.org/2000/svg">
<path d="M19.1429 24.8889H36.2857M19.1429 47.7778H64.8571M19.1429 64.9444H64.8571M19.1429 82.1111H64.8571M32.1627 2.00327L2 2V105H82V51.9096M54.7068 22.9466L53.4286 30.6111L61.0824 29.3312C73.5336 27.2489 79.5987 35.6687 81.678 48.1372C81.8858 49.3832 81.9902 50.6442 81.9902 51.9074V53.5C81.9902 22.438 62.9849 2.8798 32.1706 2.03176L30.5714 2.00978H32.1618C44.7855 2.00978 55.019 6.53526 55.019 19.1764C55.019 20.4397 54.9145 21.7007 54.7068 22.9466Z" stroke="#00407C" stroke-width="4" stroke-linecap="round" stroke-linejoin="round"/>
</svg>
