<svg width="112" height="112" viewBox="0 0 112 112" fill="none" xmlns="http://www.w3.org/2000/svg">
<path d="M107.427 29.7945C107.427 28.924 107.174 28.0723 106.697 27.3439C106.221 26.6155 105.542 26.042 104.744 25.6938L57.7886 5.27496C57.224 5.03029 56.6152 4.90405 55.9999 4.90405C55.3845 4.90405 54.7757 5.03029 54.2111 5.27496L7.25591 25.6938C6.45808 26.042 5.77922 26.6155 5.3026 27.3439C4.82599 28.0723 4.57233 28.924 4.57275 29.7945V82.0132C4.57268 82.8958 4.83379 83.7587 5.32319 84.4932C5.8126 85.2277 6.50841 85.8009 7.32299 86.1408L56.4471 106.609C57.0153 106.846 57.6263 106.963 58.2419 106.953C58.8575 106.943 59.4644 106.806 60.0246 106.551L104.806 86.1855C105.588 85.8302 106.25 85.2575 106.715 84.5359C107.18 83.8143 107.427 82.9743 107.427 82.116V29.7945Z" stroke="#00407C" stroke-width="4" stroke-linecap="round" stroke-linejoin="round"/>
<path d="M58.2362 49.2206L5.40039 27.2053" stroke="#00407C" stroke-width="4" stroke-linecap="round" stroke-linejoin="round"/>
<path d="M58.2358 49.2205L106.618 27.2275" stroke="#00407C" stroke-width="4" stroke-linecap="round" stroke-linejoin="round"/>
<path d="M34.4766 13.8701L84.1194 37.4729" stroke="#00407C" stroke-width="4" stroke-linecap="round" stroke-linejoin="round"/>
<path d="M44.8203 60.1856C44.8201 59.7508 44.6931 59.3254 44.4548 58.9616C44.2165 58.5978 43.8773 58.3114 43.4787 58.1375L21.1191 48.3529C20.7786 48.2043 20.4064 48.1429 20.0362 48.1742C19.6659 48.2056 19.3094 48.3287 18.9987 48.5324C18.6879 48.7361 18.4329 49.0141 18.2566 49.3411C18.0803 49.6682 17.9882 50.034 17.9888 50.4055V67.8818C17.989 68.3167 18.116 68.7421 18.3543 69.1058C18.5926 69.4696 18.9318 69.756 19.3303 69.93L41.69 79.7145C42.0301 79.863 42.4019 79.9244 42.7718 79.8933C43.1417 79.8622 43.498 79.7395 43.8086 79.5363C44.1191 79.3331 44.3743 79.0557 44.5509 78.7293C44.7275 78.4028 44.8201 78.0376 44.8203 77.6664V60.1856Z" stroke="#00407C" stroke-width="4" stroke-linecap="round" stroke-linejoin="round"/>
<path d="M58.2358 107.096V49.2205" stroke="#00407C" stroke-width="4" stroke-linecap="round" stroke-linejoin="round"/>
</svg>
