<svg width="104" height="104" viewBox="0 0 104 104" fill="none" xmlns="http://www.w3.org/2000/svg">
<path d="M43.6504 83.2518C43.6504 83.2518 43.6504 74.9132 51.988 74.9132C60.3257 74.9132 60.3257 83.2518 60.3257 83.2518M2 47.8374H102M6.15833 83.2485C6.15833 88.2217 8.13377 92.9912 11.6501 96.5078C15.1664 100.024 19.9355 102 24.9083 102C29.8811 102 34.6503 100.024 38.1666 96.5078C41.6829 92.9912 43.6583 88.2217 43.6583 83.2485C43.6583 78.2752 41.6829 73.5057 38.1666 69.9891C34.6503 66.4725 29.8811 64.4969 24.9083 64.4969C19.9355 64.4969 15.1664 66.4725 11.6501 69.9891C8.13377 73.5057 6.15833 78.2752 6.15833 83.2485ZM60.3417 83.2485C60.3417 88.2217 62.3171 92.9912 65.8334 96.5078C69.3497 100.024 74.1188 102 79.0917 102C84.0645 102 88.8336 100.024 92.3499 96.5078C95.8662 92.9912 97.8417 88.2217 97.8417 83.2485C97.8417 78.2752 95.8662 73.5057 92.3499 69.9891C88.8336 66.4725 84.0645 64.4969 79.0917 64.4969C74.1188 64.4969 69.3497 66.4725 65.8334 69.9891C62.3171 73.5057 60.3417 78.2752 60.3417 83.2485ZM21.6737 8.96373C22.3434 4.94531 25.82 2 29.8936 2H74.1072C78.1808 2 81.6575 4.94548 82.3275 8.96406L89.4992 47.8371H14.5L21.6737 8.96373Z" stroke="#00407C" stroke-width="4" stroke-linecap="round" stroke-linejoin="round"/>
</svg>
