<svg width="105" height="105" viewBox="0 0 105 105" fill="none" xmlns="http://www.w3.org/2000/svg">
<path d="M10.4167 103H25.1458C28.6321 103 31.4583 100.174 31.4583 96.6875C31.4583 93.2013 34.2846 90.375 37.7708 90.375H67.2292C70.7154 90.375 73.5417 93.2013 73.5417 96.6875C73.5417 100.174 76.3679 103 79.8542 103H94.5833C99.2319 103 103 99.2319 103 94.5833V91.9329C103 79.0672 93.3276 68.242 80.5174 67.0435C69.9722 66.0568 58.4406 65.125 52.5 65.125C46.5593 65.125 35.0278 66.0568 24.4825 67.0435C11.6723 68.242 2 79.0672 2 91.9329V94.5833C2 99.2319 5.76831 103 10.4167 103Z" stroke="#00407C" stroke-width="4" stroke-linecap="round" stroke-linejoin="round"/>
<path d="M10.4158 55.754V49.6383L4.10334 41.8108C3.04251 40.4796 2.41025 38.8579 2.29006 37.16C2.16987 35.462 2.5673 33.7674 3.43001 32.3L6.79668 26.4083C7.63262 24.9639 8.87913 23.8006 10.3778 23.0662C11.8765 22.3319 13.5596 22.0597 15.2133 22.2842L25.145 23.7992L37.6017 16.7292L41.2208 7.38667C41.8312 5.80484 42.905 4.44428 44.3018 3.4831C45.6984 2.52192 47.3529 2.00505 49.0483 2H55.95C57.6455 2.00505 59.2999 2.52192 60.6966 3.4831C62.0933 4.44428 63.1671 5.80484 63.7775 7.38667L67.3967 16.7292L79.6848 23.7992L89.6165 22.2842C91.2704 22.0597 92.9537 22.3319 94.4519 23.0662C95.9509 23.8006 97.1974 24.9639 98.0332 26.4083L101.4 32.3C102.263 33.7674 102.66 35.462 102.54 37.16C102.42 38.8579 101.788 40.4796 100.727 41.8108L94.5823 49.6383V55.7533" stroke="#00407C" stroke-width="4" stroke-linecap="round" stroke-linejoin="round"/>
<path d="M36.5874 51.2151C37.4127 48.8246 38.774 46.6278 40.5961 44.8056C43.753 41.6487 48.0346 39.8752 52.4991 39.8752C55.8284 39.8752 59.083 40.8625 61.8512 42.7122C64.6194 44.5618 66.777 47.1908 68.0511 50.2667C68.1807 50.5798 68.3006 50.896 68.4108 51.215" stroke="#00407C" stroke-width="4" stroke-linecap="round" stroke-linejoin="round"/>
</svg>
