<svg width="139" height="104" viewBox="0 0 139 104" fill="none" xmlns="http://www.w3.org/2000/svg">
<path d="M107.651 87.1091C107.651 89.0361 107.272 90.9442 106.534 92.7245C105.797 94.5049 104.716 96.1225 103.353 97.4851C101.991 98.8477 100.373 99.9286 98.5929 100.666C96.8125 101.403 94.9044 101.783 92.9774 101.783C91.0504 101.783 89.1422 101.403 87.3619 100.666C85.5816 99.9286 83.9639 98.8477 82.6013 97.4851C81.2387 96.1225 80.1578 94.5049 79.4204 92.7245C78.683 90.9442 78.3034 89.0361 78.3034 87.1091C78.3034 83.2173 79.8494 79.4849 82.6013 76.733C85.3532 73.9811 89.0856 72.4351 92.9774 72.4351C96.8692 72.4351 100.602 73.9811 103.353 76.733C106.105 79.4849 107.651 83.2173 107.651 87.1091Z" stroke="#00407C" stroke-width="4" stroke-linecap="round" stroke-linejoin="round"/>
<path d="M43.0859 87.1091C43.0859 91.0008 41.5399 94.7332 38.788 97.4851C36.0361 100.237 32.3037 101.783 28.412 101.783C24.5202 101.783 20.7878 100.237 18.0359 97.4851C15.284 94.7332 13.738 91.0008 13.738 87.1091C13.738 83.2173 15.284 79.4849 18.0359 76.733C20.7878 73.9811 24.5202 72.4351 28.412 72.4351C32.3037 72.4351 36.0361 73.9811 38.788 76.733C41.5399 79.4849 43.0859 83.2173 43.0859 87.1091Z" stroke="#00407C" stroke-width="4" stroke-linecap="round" stroke-linejoin="round"/>
<path d="M90.0439 60.6959V7.8696C90.0439 7.09879 89.8921 6.33553 89.5971 5.6234C89.3022 4.91127 88.8698 4.26421 88.3248 3.71917C87.7797 3.17412 87.1327 2.74177 86.4205 2.4468C85.7084 2.15182 84.9452 2 84.1744 2H7.86962C6.3129 2 4.81996 2.6184 3.71919 3.71917C2.61843 4.81993 2.00003 6.31288 2.00003 7.8696V84.1743H13.7392" stroke="#00407C" stroke-width="4" stroke-linecap="round" stroke-linejoin="round"/>
<path d="M78.3032 84.1743H54.8248" stroke="#00407C" stroke-width="4" stroke-linecap="round" stroke-linejoin="round"/>
<path d="M119.391 90.044H131.13C132.687 90.044 134.18 89.4256 135.281 88.3249C136.382 87.2241 137 85.7312 137 84.1744V48.9569C137 42.73 134.526 36.7582 130.123 32.3552C125.72 27.9521 119.748 25.4785 113.522 25.4785H90.0432" stroke="#00407C" stroke-width="4" stroke-linecap="round" stroke-linejoin="round"/>
<path d="M137 78.3044H116.456" stroke="#00407C" stroke-width="4" stroke-linecap="round" stroke-linejoin="round"/>
<path d="M137 51.8917H113.522C111.965 51.8917 110.472 51.2733 109.371 50.1725C108.27 49.0718 107.652 47.5788 107.652 46.0221V25.4785" stroke="#00407C" stroke-width="4" stroke-linecap="round" stroke-linejoin="round"/>
</svg>
