<svg width="130" height="130" viewBox="0 0 130 130" fill="none" xmlns="http://www.w3.org/2000/svg">
<path d="M67.923 10.9591L67.9231 10.9589C68.6502 9.91648 69.5844 9.03505 70.6673 8.36965C71.7501 7.70425 72.9586 7.26916 74.2171 7.09152C75.4756 6.91388 76.7572 6.99751 77.982 7.33719C79.2067 7.67686 80.3484 8.2653 81.3356 9.06577L102.59 26.3231L102.59 26.3231C104.392 27.7852 105.579 29.8711 105.914 32.167C106.238 34.3765 105.75 36.6253 104.548 38.4999H97.845L99.8309 35.6534C100.375 34.8769 100.605 33.9228 100.475 32.9835C100.344 32.0441 99.8618 31.1892 99.1259 30.5909L99.1255 30.5906L88.1795 21.7116L87.7601 21.3714L87.4531 21.8157L75.9282 38.4999H69.2334L83.2123 18.2762L83.4755 17.8955L83.1162 17.6037L77.8641 13.3397L77.864 13.3396C77.464 13.015 77.0013 12.7763 76.5049 12.6384C76.0084 12.5005 75.4889 12.4664 74.9787 12.5381C74.4685 12.6099 73.9786 12.7861 73.5395 13.0556C73.1004 13.3251 72.7215 13.6822 72.4266 14.1046L72.4265 14.1048L55.4092 38.4934H48.6989L67.923 10.9591ZM28.6663 50.9758L28 50.741V51.4474V94.2499C28 96.9684 29.0799 99.5755 31.0022 101.498C32.9244 103.42 35.5315 104.5 38.25 104.5H100C101.857 104.5 103.637 103.762 104.95 102.45C106.262 101.137 107 99.3564 107 97.4999V58.4999C107 56.6434 106.262 54.8629 104.95 53.5502C103.637 52.2374 101.857 51.4999 100 51.4999H31.75C30.6696 51.4999 29.6273 51.3147 28.6663 50.9758ZM88.3055 79.3054C88.8212 78.7896 89.5207 78.4999 90.25 78.4999H96.75C97.4793 78.4999 98.1788 78.7896 98.6945 79.3054C99.2103 79.8211 99.5 80.5206 99.5 81.2499C99.5 81.9792 99.2103 82.6787 98.6945 83.1945C98.1788 83.7102 97.4793 83.9999 96.75 83.9999H90.25C89.5207 83.9999 88.8212 83.7102 88.3055 83.1945C87.7897 82.6787 87.5 81.9792 87.5 81.2499C87.5 80.5206 87.7897 79.8211 88.3055 79.3054ZM31.75 32.9999H44.8882L41.0382 38.4999H31.75C30.7554 38.4999 29.8016 38.895 29.0984 39.5982C28.3951 40.3015 28 41.2553 28 42.2499C28 43.2445 28.3951 44.1983 29.0984 44.9016C29.8016 45.6048 30.7554 45.9999 31.75 45.9999H100C103.315 45.9999 106.495 47.3169 108.839 49.6611C111.183 52.0053 112.5 55.1847 112.5 58.4999V97.4999C112.5 100.815 111.183 103.995 108.839 106.339C106.495 108.683 103.315 110 100 110H38.25C34.0728 110 30.0668 108.341 27.1131 105.387C24.1594 102.433 22.5 98.4271 22.5 94.2499V42.2499C22.5 39.7966 23.4746 37.4439 25.2093 35.7092C26.944 33.9744 29.2967 32.9999 31.75 32.9999Z" fill="#00407C" stroke="#E9E9E9"/>
</svg>
