<svg width="50" height="50" viewBox="0 0 50 50" fill="none" xmlns="http://www.w3.org/2000/svg">
<path d="M50 25C50 38.8071 38.8071 50 25 50C11.1929 50 0 38.8071 0 25C0 11.1929 11.1929 0 25 0C38.8071 0 50 11.1929 50 25Z" fill="#4AB333"/>
<path d="M50 25C50 38.8071 38.8071 50 25 50C11.1929 50 0 38.8071 0 25C0 11.1929 11.1929 0 25 0C38.8071 0 50 11.1929 50 25Z" fill="#4AB333"/>
<rect x="13.8301" y="12.766" width="23.4043" height="23.4043" fill="white" fill-opacity="0.01"/>
<path fill-rule="evenodd" clip-rule="evenodd" d="M34.1132 23.6553C34.103 23.7006 34.1053 23.6905 34.1019 23.7366C33.2068 27.6651 27.3262 33.8439 25.3228 35.8594C23.3149 33.8484 17.418 27.6736 16.5088 23.6561C16.5051 23.6189 16.4998 23.5818 16.4922 23.5452C16.3666 22.9418 16.303 22.3201 16.303 21.6986C16.303 16.7292 20.3455 12.6858 25.3143 12.6858C30.2838 12.6858 34.3269 16.7292 34.3269 21.6986C34.3269 22.3629 34.2551 23.0212 34.1132 23.6553ZM25.3148 10.7546C19.2807 10.7546 14.3721 15.6641 14.3721 21.6987C14.3721 22.4325 14.445 23.1663 14.5897 23.8809C14.5954 23.933 14.6041 23.9868 14.6165 24.0442C15.8188 29.4543 24.2988 37.5728 24.659 37.9155C24.8457 38.0929 25.0853 38.1816 25.3249 38.1816C25.5654 38.1816 25.8061 38.0923 25.9925 37.9135C26.3509 37.5706 34.7814 29.4526 35.9849 24.1684C35.9964 24.1188 36.0049 24.0701 36.0108 24.0214C36.1755 23.2662 36.2588 22.4852 36.2588 21.6987C36.2588 15.6641 31.3494 10.7546 25.3148 10.7546Z" fill="#F1F1F1"/>
<path d="M34.1019 23.7366L34.5894 23.8477L34.5978 23.8108L34.6006 23.7731L34.1019 23.7366ZM25.3228 35.8594L24.969 36.2127L25.3236 36.5678L25.6774 36.2119L25.3228 35.8594ZM16.5088 23.6561L16.0112 23.7051L16.0142 23.7361L16.0211 23.7665L16.5088 23.6561ZM16.4922 23.5452L16.9817 23.4435L16.9817 23.4433L16.4922 23.5452ZM14.5897 23.8809L15.0868 23.8272L15.0844 23.8042L15.0798 23.7817L14.5897 23.8809ZM14.6165 24.0442L14.1277 24.1496L14.1284 24.1527L14.6165 24.0442ZM24.659 37.9155L24.3143 38.2777L24.3146 38.278L24.659 37.9155ZM25.9925 37.9135L25.6468 37.5523L25.6464 37.5527L25.9925 37.9135ZM35.9849 24.1684L35.4979 24.0549L35.4974 24.0574L35.9849 24.1684ZM36.0108 24.0214L35.5223 23.9149L35.5173 23.9378L35.5144 23.9612L36.0108 24.0214ZM33.6252 23.5462C33.6231 23.5556 33.6202 23.5684 33.6179 23.5797C33.6151 23.5931 33.6117 23.6112 33.6089 23.6329C33.6064 23.6529 33.6053 23.6698 33.6048 23.6771C33.6041 23.6867 33.6039 23.6903 33.6032 23.7002L34.6006 23.7731C34.6011 23.766 34.6015 23.7599 34.6018 23.7549C34.602 23.7525 34.6021 23.7503 34.6022 23.7486C34.6024 23.7467 34.6024 23.7455 34.6025 23.7445C34.6027 23.7423 34.6026 23.7432 34.6024 23.7454C34.6022 23.748 34.6018 23.7526 34.601 23.7584C34.6003 23.7643 34.5994 23.7698 34.5986 23.7743C34.5979 23.7785 34.5974 23.7813 34.5973 23.7816C34.5973 23.7817 34.5975 23.7808 34.5982 23.7775C34.5989 23.7743 34.5998 23.7703 34.6011 23.7644L33.6252 23.5462ZM33.6144 23.6256C33.4081 24.5308 32.9045 25.5999 32.2072 26.7446C31.5136 27.8834 30.646 29.0689 29.7377 30.2028C27.9212 32.4706 25.9642 34.5049 24.9682 35.5069L25.6774 36.2119C26.6848 35.1984 28.6698 33.1356 30.5182 30.828C31.4423 29.6742 32.3379 28.4524 33.0613 27.2648C33.781 26.0832 34.3481 24.9067 34.5894 23.8477L33.6144 23.6256ZM25.6766 35.5061C24.6786 34.5065 22.7167 32.4746 20.8941 30.1977C19.9828 29.0592 19.1119 27.8663 18.4148 26.7158C17.7143 25.5597 17.2065 24.4739 16.9965 23.5457L16.0211 23.7665C16.2657 24.8471 16.8359 26.0396 17.5595 27.234C18.2866 28.4341 19.1859 29.6638 20.1134 30.8226C21.9686 33.1402 23.9591 35.2013 24.969 36.2127L25.6766 35.5061ZM17.0064 23.6071C17.0013 23.5552 16.9935 23.5002 16.9817 23.4435L16.0026 23.6468C16.0061 23.6634 16.009 23.6827 16.0112 23.7051L17.0064 23.6071ZM16.9817 23.4433C16.8631 22.8737 16.803 22.2862 16.803 21.6986H15.803C15.803 22.3539 15.87 23.0098 16.0027 23.647L16.9817 23.4433ZM16.803 21.6986C16.803 17.0052 20.6217 13.1858 25.3143 13.1858V12.1858C20.0692 12.1858 15.803 16.4531 15.803 21.6986H16.803ZM25.3143 13.1858C30.0076 13.1858 33.8269 17.0053 33.8269 21.6986H34.8269C34.8269 16.4531 30.56 12.1858 25.3143 12.1858V13.1858ZM33.8269 21.6986C33.8269 22.327 33.7589 22.9487 33.6252 23.5461L34.6011 23.7645C34.7512 23.0937 34.8269 22.3987 34.8269 21.6986H33.8269ZM25.3148 10.2546C19.0045 10.2546 13.8721 15.388 13.8721 21.6987H14.8721C14.8721 15.9402 19.5569 11.2546 25.3148 11.2546V10.2546ZM13.8721 21.6987C13.8721 22.4654 13.9483 23.2325 14.0997 23.9802L15.0798 23.7817C14.9417 23.1001 14.8721 22.3996 14.8721 21.6987H13.8721ZM14.0926 23.9346C14.1003 24.0054 14.1119 24.0764 14.1277 24.1496L15.1052 23.9388C15.0962 23.8971 15.0904 23.8606 15.0868 23.8272L14.0926 23.9346ZM14.1284 24.1527C14.4475 25.5886 15.2385 27.1679 16.2201 28.7138C17.2059 30.2665 18.4051 31.8179 19.5711 33.2023C21.9034 35.9711 24.1283 38.1007 24.3143 38.2777L25.0036 37.5533C24.8295 37.3876 22.6343 35.2866 20.336 32.558C19.1867 31.1936 18.0179 29.6796 17.0643 28.1778C16.1064 26.6692 15.3866 25.2049 15.1046 23.9357L14.1284 24.1527ZM24.3146 38.278C24.5975 38.5469 24.9618 38.6816 25.3249 38.6816V37.6816C25.2087 37.6816 25.0938 37.6389 25.0034 37.5531L24.3146 38.278ZM25.3249 38.6816C25.6889 38.6816 26.0553 38.5462 26.3386 38.2744L25.6464 37.5527C25.5569 37.6385 25.4418 37.6816 25.3249 37.6816V38.6816ZM26.3382 38.2748C26.5232 38.0978 28.7348 35.9686 31.0542 33.2161C32.2138 31.84 33.4064 30.3009 34.3875 28.7665C35.3641 27.2392 36.1526 25.6837 36.4724 24.2794L35.4974 24.0574C35.2155 25.2952 34.4988 26.7361 33.545 28.2278C32.5957 29.7124 31.4327 31.215 30.2895 32.5718C28.0031 35.2851 25.8202 37.3864 25.6468 37.5523L26.3382 38.2748ZM36.4718 24.2818C36.4876 24.214 36.4991 24.1475 36.5071 24.0817L35.5144 23.9612C35.5106 23.9927 35.5052 24.0236 35.4979 24.0549L36.4718 24.2818ZM36.4993 24.128C36.6718 23.3371 36.7588 22.5203 36.7588 21.6987H35.7588C35.7588 22.45 35.6792 23.1953 35.5223 23.9149L36.4993 24.128ZM36.7588 21.6987C36.7588 15.388 31.6255 10.2546 25.3148 10.2546V11.2546C31.0732 11.2546 35.7588 15.9402 35.7588 21.6987H36.7588Z" fill="#F1F1F1"/>
<path fill-rule="evenodd" clip-rule="evenodd" d="M25.3164 22.4162C24.2983 22.4162 23.4697 21.5877 23.4697 20.5695C23.4697 19.5513 24.2983 18.7228 25.3164 18.7228C26.3346 18.7228 27.1629 19.5513 27.1629 20.5695C27.1629 21.5877 26.3346 22.4162 25.3164 22.4162ZM25.3156 16.6709C23.1659 16.6709 21.417 18.4198 21.417 20.5695C21.417 22.7192 23.1659 24.4681 25.3156 24.4681C27.4653 24.4681 29.2139 22.7192 29.2139 20.5695C29.2139 18.4198 27.4653 16.6709 25.3156 16.6709Z" fill="#F1F1F1"/>
<path d="M25.3164 22.1662C24.4363 22.1662 23.7197 21.4496 23.7197 20.5695H23.2197C23.2197 21.7258 24.1602 22.6662 25.3164 22.6662V22.1662ZM23.7197 20.5695C23.7197 19.6894 24.4363 18.9728 25.3164 18.9728V18.4728C24.1602 18.4728 23.2197 19.4133 23.2197 20.5695H23.7197ZM25.3164 18.9728C26.1965 18.9728 26.9129 19.6894 26.9129 20.5695H27.4129C27.4129 19.4133 26.4727 18.4728 25.3164 18.4728V18.9728ZM26.9129 20.5695C26.9129 21.4497 26.1965 22.1662 25.3164 22.1662V22.6662C26.4727 22.6662 27.4129 21.7257 27.4129 20.5695H26.9129ZM25.3156 16.4209C23.0278 16.4209 21.167 18.2817 21.167 20.5695H21.667C21.667 18.5579 23.304 16.9209 25.3156 16.9209V16.4209ZM21.167 20.5695C21.167 22.8573 23.0278 24.7181 25.3156 24.7181V24.2181C23.304 24.2181 21.667 22.5812 21.667 20.5695H21.167ZM25.3156 24.7181C27.6034 24.7181 29.4639 22.8573 29.4639 20.5695H28.9639C28.9639 22.5812 27.3272 24.2181 25.3156 24.2181V24.7181ZM29.4639 20.5695C29.4639 18.2818 27.6034 16.4209 25.3156 16.4209V16.9209C27.3272 16.9209 28.9639 18.5579 28.9639 20.5695H29.4639Z" fill="#F1F1F1"/>
</svg>
