<svg width="48" height="48" viewBox="0 0 48 48" fill="none" xmlns="http://www.w3.org/2000/svg">
<path fill-rule="evenodd" clip-rule="evenodd" d="M4.10789 10.5482C4.27819 10.2119 4.62309 10 5 10L15.7388 10C16.0475 10 16.3388 10.1425 16.5283 10.3862L24.096 20.1202L31.4439 10.3971C31.6329 10.147 31.9282 10 32.2417 10L43 10C43.3762 10 43.7205 10.2111 43.8912 10.5463C44.0618 10.8815 44.0299 11.2841 43.8086 11.5883L24.8923 37.5883C24.7045 37.8464 24.4049 37.9993 24.0858 38C23.7666 38.0007 23.4663 37.849 23.2775 37.5917L4.19384 11.5917C3.97082 11.2879 3.93759 10.8844 4.10789 10.5482ZM24.0801 35.3051L41.0358 12L32.7394 12L24.905 22.3668C24.7175 22.615 24.4251 22.7618 24.1141 22.7639C23.803 22.766 23.5087 22.6233 23.3178 22.3777L15.2496 12L6.97444 12L24.0801 35.3051Z" fill="#EEF1F6"/>
</svg>
