<svg width="35" height="36" viewBox="0 0 35 36" fill="none" xmlns="http://www.w3.org/2000/svg">
<path fill-rule="evenodd" clip-rule="evenodd" d="M20.6695 35.3617C20.2932 35.3824 19.9372 35.1896 19.7488 34.8632L14.3793 25.5631C14.225 25.2958 14.2028 24.9722 14.3191 24.6863L18.9651 13.2655L6.8707 11.7636C6.55961 11.725 6.28465 11.5427 6.12791 11.2712L0.748752 1.95426C0.560674 1.6285 0.571315 1.22475 0.776288 0.909344C0.981261 0.593939 1.34589 0.420244 1.71996 0.459807L33.6948 3.84183C34.0122 3.8754 34.2944 4.05843 34.4546 4.33447C34.6147 4.61051 34.6335 4.94641 34.5051 5.23858L21.5303 34.7655C21.3787 35.1106 21.0459 35.3411 20.6695 35.3617ZM32.1236 5.6868L3.46291 2.65532L7.6111 9.84019L20.5062 11.4415C20.8149 11.4799 21.0882 11.6597 21.2456 11.928C21.4029 12.1963 21.4265 12.5226 21.3093 12.8107L16.356 24.9868L20.4936 32.1533L32.1236 5.6868Z" fill="#EEF1F6"/>
</svg>
