<svg width="110" height="110" viewBox="0 0 110 110" fill="none" xmlns="http://www.w3.org/2000/svg">
<path d="M107.708 107.708C104.175 107.579 100.71 106.693 97.5481 105.112C94.3857 103.531 91.5987 101.29 89.375 98.5417C87.7656 101.365 85.4283 103.705 82.6067 105.317C79.7851 106.929 76.5827 107.755 73.3333 107.708C69.8153 107.504 66.3756 106.587 63.2238 105.011C60.0719 103.435 57.2738 101.234 55 98.5417C53.3447 101.324 50.9973 103.631 48.1862 105.237C45.3751 106.844 42.196 107.695 38.9583 107.708C31.8742 107.202 25.2805 103.905 20.625 98.5417C18.6915 101.592 15.9627 104.058 12.7323 105.673C9.50189 107.288 5.89218 107.992 2.29163 107.708" stroke="#4AB333" stroke-width="2" stroke-linecap="round" stroke-linejoin="round"/>
<path d="M107.708 93.9583C104.175 93.8286 100.71 92.9433 97.5481 91.3621C94.3857 89.7809 91.5987 87.5404 89.375 84.7917C87.7656 87.6149 85.4283 89.9547 82.6067 91.567C79.7851 93.1793 76.5827 94.0051 73.3333 93.9583C69.8153 93.7544 66.3756 92.8366 63.2238 91.2607C60.0719 89.6847 57.2738 87.4837 55 84.7917C53.3447 87.5743 50.9973 89.881 48.1862 91.4874C45.3751 93.0937 42.196 93.945 38.9583 93.9583C31.8742 93.4519 25.2805 90.1551 20.625 84.7917C18.6915 87.8422 15.9627 90.3078 12.7323 91.923C9.50189 93.5382 5.89218 94.2419 2.29163 93.9583" stroke="#4AB333" stroke-width="2" stroke-linecap="round" stroke-linejoin="round"/>
<path d="M34.375 57.2917L53.2263 34.2513C53.4412 33.9885 53.7118 33.7768 54.0186 33.6314C54.3253 33.4861 54.6605 33.4106 55 33.4106C55.3395 33.4106 55.6747 33.4861 55.9814 33.6314C56.2882 33.7768 56.5588 33.9885 56.7738 34.2513L75.625 57.2917" stroke="#4AB333" stroke-width="2" stroke-linecap="round" stroke-linejoin="round"/>
<path d="M32.0833 92.62L15.4871 60.6375C15.3061 60.2882 15.2181 59.8981 15.2316 59.5049C15.245 59.1117 15.3595 58.7286 15.5639 58.3925C15.7684 58.0563 16.0559 57.7785 16.3989 57.5857C16.7418 57.3929 17.1286 57.2916 17.5221 57.2917H92.5054C92.8977 57.2913 93.2835 57.3916 93.626 57.583C93.9684 57.7745 94.2559 58.0506 94.4611 58.385C94.6662 58.7194 94.7821 59.1008 94.7976 59.4928C94.8131 59.8848 94.7277 60.2742 94.5496 60.6237L77.9167 93.1929" stroke="#4AB333" stroke-width="2" stroke-linecap="round" stroke-linejoin="round"/>
<path d="M32.0834 92.62L55 57.2917L77.9167 93.1929" stroke="#4AB333" stroke-width="2" stroke-linecap="round" stroke-linejoin="round"/>
</svg>
