<svg width="88" height="88" viewBox="0 0 88 88" fill="none" xmlns="http://www.w3.org/2000/svg">
<path d="M1.83331 84.3344C1.83331 77.5269 4.53748 70.9987 9.3509 66.1851C14.1643 61.3719 20.6927 58.6677 27.5 58.6677C30.6494 58.6391 33.7705 59.2632 36.6666 60.5011" stroke="#4AB333" stroke-width="2" stroke-linecap="round" stroke-linejoin="round"/>
<path d="M34.848 84.3333H12.8443" stroke="#4AB333" stroke-width="2" stroke-linecap="round" stroke-linejoin="round"/>
<path d="M27.5146 66V73.3333" stroke="#4AB333" stroke-width="2" stroke-linecap="round" stroke-linejoin="round"/>
<path d="M27.5147 53.1667C35.6149 53.1667 42.1814 46.6 42.1814 38.5C42.1814 30.3998 35.6149 23.8333 27.5147 23.8333C19.4145 23.8333 12.848 30.3998 12.848 38.5C12.848 46.6 19.4145 53.1667 27.5147 53.1667Z" stroke="#4AB333" stroke-width="2" stroke-linecap="round" stroke-linejoin="round"/>
<path d="M42.0383 36.4578C39.4482 37.8283 36.557 38.5301 33.627 38.5C30.1835 38.5007 26.8096 37.5313 23.8914 35.7033C20.9733 33.8753 18.629 31.2624 17.127 28.1638" stroke="#4AB333" stroke-width="2" stroke-linecap="round" stroke-linejoin="round"/>
<path d="M42.1814 3.66667V11" stroke="#4AB333" stroke-width="2" stroke-linecap="round" stroke-linejoin="round"/>
<path d="M45.8481 7.33333H38.5148" stroke="#4AB333" stroke-width="2" stroke-linecap="round" stroke-linejoin="round"/>
<path d="M81.5981 36.6667V44" stroke="#4AB333" stroke-width="2" stroke-linecap="round" stroke-linejoin="round"/>
<path d="M85.2647 40.3333H77.9314" stroke="#4AB333" stroke-width="2" stroke-linecap="round" stroke-linejoin="round"/>
<path d="M71.5 11H61.2334C58.817 11 56.859 11.7077 56.859 14.6667C56.859 19.459 71.5257 24.541 71.5257 29.3333C71.5257 31.8743 69.5677 33 67.1514 33H56.8334" stroke="#4AB333" stroke-width="2" stroke-linecap="round" stroke-linejoin="round"/>
<path d="M64.1814 11V5.5" stroke="#4AB333" stroke-width="2" stroke-linecap="round" stroke-linejoin="round"/>
<path d="M64.1814 38.5V33" stroke="#4AB333" stroke-width="2" stroke-linecap="round" stroke-linejoin="round"/>
<path d="M45.012 53.8413C45.2551 53.1109 45.7223 52.4755 46.3467 52.0256C46.9715 51.5753 47.7217 51.333 48.4917 51.3333H81.092C81.6732 51.3333 82.2456 51.4712 82.7629 51.7356C83.2803 52.0003 83.7273 52.3842 84.0668 52.8554C84.4067 53.3265 84.6296 53.8718 84.7176 54.4463C84.8053 55.0205 84.7554 55.6076 84.5717 56.1587L75.1667 84.3333H34.8334L45.012 53.8413Z" stroke="#4AB333" stroke-width="2" stroke-linecap="round" stroke-linejoin="round"/>
<path d="M60.9727 71.5C58.948 71.5 57.306 69.8584 57.306 67.8333C57.306 65.8082 58.948 64.1667 60.9727 64.1667" stroke="#4AB333" stroke-width="2"/>
<path d="M60.9727 71.5C62.9978 71.5 64.6393 69.8584 64.6393 67.8333C64.6393 65.8082 62.9978 64.1667 60.9727 64.1667" stroke="#4AB333" stroke-width="2"/>
</svg>
