<svg width="93" height="87" viewBox="0 0 93 87" fill="none" xmlns="http://www.w3.org/2000/svg">
<path d="M67.8125 74.3056L52.4675 77.3668" stroke="#4AB333" stroke-width="2" stroke-linecap="round" stroke-linejoin="round"/>
<path d="M54.25 60.1243L47.0813 63.0693C46.5173 63.308 45.9112 63.431 45.2988 63.431C44.6864 63.431 44.0802 63.308 43.5163 63.0693C42.694 62.7314 41.987 62.1631 41.4802 61.4328C40.9734 60.7024 40.6885 59.8411 40.6599 58.9527C40.6312 58.0642 40.86 57.1863 41.3186 56.4248C41.7773 55.6633 42.4463 55.0506 43.245 54.6605L50.375 51.2505C51.2603 50.7892 52.2443 50.5498 53.2425 50.553C53.9943 50.5686 54.7391 50.6993 55.4513 50.9405L68.5488 55.978" stroke="#4AB333" stroke-width="2" stroke-linecap="round" stroke-linejoin="round"/>
<path d="M25.1875 77.5608H30.6125L39.6412 84.4195C40.0904 84.9323 40.7208 85.2511 41.4 85.3089C42.0792 85.3667 42.7544 85.1591 43.2838 84.7295L56.8463 73.8408C57.3732 73.3957 57.7078 72.7641 57.78 72.0781C57.8522 71.392 57.6565 70.7046 57.2338 70.1595L49.7938 61.9445" stroke="#4AB333" stroke-width="2" stroke-linecap="round" stroke-linejoin="round"/>
<path d="M42.625 55.1242L41.695 54.3492C40.7115 53.6456 39.533 53.2664 38.3238 53.2642C37.6075 53.2539 36.8963 53.3856 36.2313 53.6517L25.1875 58.1854" stroke="#4AB333" stroke-width="2" stroke-linecap="round" stroke-linejoin="round"/>
<path d="M13.5625 79.4994C13.5625 80.0132 13.7666 80.506 14.13 80.8694C14.4933 81.2327 14.9861 81.4369 15.5 81.4369H21.3125C22.3402 81.4369 23.3258 81.0286 24.0525 80.3019C24.7792 79.5752 25.1875 78.5896 25.1875 77.5619V58.1869C25.1875 57.1591 24.7792 56.1735 24.0525 55.4468C23.3258 54.7201 22.3402 54.3119 21.3125 54.3119H15.5C14.9861 54.3119 14.4933 54.516 14.13 54.8793C13.7666 55.2427 13.5625 55.7355 13.5625 56.2494V79.4994Z" stroke="#4AB333" stroke-width="2" stroke-linecap="round" stroke-linejoin="round"/>
<path d="M79.4375 79.4994C79.4375 80.0132 79.2334 80.506 78.87 80.8694C78.5067 81.2327 78.0139 81.4369 77.5 81.4369H71.6875C70.6598 81.4369 69.6742 81.0286 68.9475 80.3019C68.2208 79.5752 67.8125 78.5896 67.8125 77.5619V58.1869C67.8125 57.1591 68.2208 56.1735 68.9475 55.4468C69.6742 54.7201 70.6598 54.3119 71.6875 54.3119H77.5C78.0139 54.3119 78.5067 54.516 78.87 54.8793C79.2334 55.2427 79.4375 55.7355 79.4375 56.2494V79.4994Z" stroke="#4AB333" stroke-width="2" stroke-linecap="round" stroke-linejoin="round"/>
<path d="M1.9375 44.6248L43.7487 2.81352C44.109 2.45032 44.5376 2.16204 45.0098 1.96531C45.482 1.76858 45.9885 1.6673 46.5 1.6673C47.0115 1.6673 47.518 1.76858 47.9902 1.96531C48.4624 2.16204 48.891 2.45032 49.2513 2.81352L91.0625 44.6248" stroke="#4AB333" stroke-width="2" stroke-linecap="round" stroke-linejoin="round"/>
<path d="M62 3.93732H73.625C74.1389 3.93732 74.6317 4.14145 74.995 4.5048C75.3584 4.86815 75.5625 5.36096 75.5625 5.87482V17.4998" stroke="#4AB333" stroke-width="2" stroke-linecap="round" stroke-linejoin="round"/>
</svg>
