<svg width="47" height="47" viewBox="0 0 47 47" fill="none" xmlns="http://www.w3.org/2000/svg">
<path d="M47 23.5C47 36.4787 36.4787 47 23.5 47C10.5213 47 0 36.4787 0 23.5C0 10.5213 10.5213 0 23.5 0C36.4787 0 47 10.5213 47 23.5Z" fill="#4AB333"/>
<path d="M47 23.5C47 36.4787 36.4787 47 23.5 47C10.5213 47 0 36.4787 0 23.5C0 10.5213 10.5213 0 23.5 0C36.4787 0 47 10.5213 47 23.5Z" fill="#4AB333"/>
<path fill-rule="evenodd" clip-rule="evenodd" d="M17.8058 12.9999H30.1942C31.1456 12.9999 31.9307 12.9999 32.5703 13.0511C33.2346 13.1043 33.8453 13.2184 34.4188 13.5047C35.3083 13.9488 36.0315 14.6573 36.4847 15.5288C36.7667 16.0711 36.8851 16.6472 36.9418 17.2717C37.0046 17.4601 37.0162 17.6598 36.9785 17.8512C37 18.3723 37 18.9751 37 19.6679V28.332C37 29.264 37 30.0333 36.9477 30.6599C36.8935 31.3108 36.777 31.9091 36.4847 32.471C36.0315 33.3425 35.3083 34.0511 34.4188 34.4951C33.8453 34.7815 33.2346 34.8956 32.5703 34.9488C31.9307 35 31.1456 34.9999 30.1943 34.9999H17.8057C16.8544 34.9999 16.0693 35 15.4297 34.9488C14.7654 34.8956 14.1547 34.7815 13.5812 34.4951C12.6917 34.0511 11.9685 33.3425 11.5153 32.471C11.223 31.9091 11.1065 31.3108 11.0523 30.6599C11 30.0333 11 29.264 11 28.332V19.6679C11 18.9752 11 18.3723 11.0215 17.8512C10.9838 17.6598 10.9954 17.4601 11.0582 17.2717C11.1149 16.6472 11.2333 16.0711 11.5153 15.5288C11.9685 14.6573 12.6917 13.9488 13.5812 13.5047C14.1547 13.2184 14.7654 13.1043 15.4297 13.0511C16.0693 12.9999 16.8544 12.9999 17.8058 12.9999ZM13.3637 20.0831V28.2841C13.3637 29.276 13.3646 29.9502 13.408 30.4714C13.4504 30.979 13.5271 31.2386 13.6213 31.4197C13.8479 31.8554 14.2095 32.2097 14.6542 32.4317C14.8391 32.524 15.104 32.5992 15.6222 32.6407C16.1541 32.6832 16.8422 32.6841 17.8546 32.6841H30.1454C31.1578 32.6841 31.8459 32.6832 32.3778 32.6407C32.896 32.5992 33.1609 32.524 33.3458 32.4317C33.7905 32.2097 34.1521 31.8554 34.3787 31.4197C34.4729 31.2386 34.5496 30.979 34.592 30.4714C34.6354 29.9502 34.6363 29.276 34.6363 28.2841V20.0831L26.9194 26.3016C26.8958 26.3206 26.8715 26.3387 26.8465 26.3559C26.8006 26.3873 26.7552 26.4186 26.7101 26.4495C26.0665 26.8924 25.5013 27.2812 24.8575 27.4384C24.2945 27.5759 23.7055 27.5759 23.1425 27.4384C22.4988 27.2812 21.9335 26.8924 21.2899 26.4496C21.2448 26.4186 21.1994 26.3873 21.1535 26.3559C21.1285 26.3387 21.1042 26.3206 21.0806 26.3016L13.3637 20.0831ZM34.5485 17.1554C34.5051 16.8811 34.4464 16.7103 34.3787 16.5802C34.1521 16.1444 33.7905 15.7901 33.3458 15.5681C33.1609 15.4759 32.896 15.4007 32.3778 15.3592C31.8459 15.3166 31.1578 15.3157 30.1454 15.3157H17.8546C16.8422 15.3157 16.1541 15.3166 15.6222 15.3592C15.104 15.4007 14.8391 15.4759 14.6542 15.5681C14.2095 15.7901 13.8479 16.1444 13.6213 16.5802C13.5536 16.7103 13.4949 16.8811 13.4515 17.1554L22.5464 24.4844C23.3758 25.0525 23.5554 25.1526 23.7142 25.1914C23.9018 25.2372 24.0982 25.2372 24.2858 25.1914C24.4447 25.1526 24.6242 25.0525 25.4536 24.4844L34.5485 17.1554Z" fill="#F1F1F1"/>
</svg>
