<svg width="52" height="52" viewBox="0 0 52 52" fill="none" xmlns="http://www.w3.org/2000/svg">
<g clip-path="url(#clip0_245_462)">
<path d="M45.9486 9.75004C46.3551 10.1563 46.5832 10.7073 46.5834 11.2819V48.75C46.5834 49.3246 46.355 49.8758 45.9488 50.2821C45.5425 50.6883 44.9913 50.9167 44.4167 50.9167H7.58341C7.00877 50.9167 6.45768 50.6883 6.05134 50.2821C5.64503 49.8758 5.41675 49.3246 5.41675 48.75V3.25004C5.41675 2.67542 5.64503 2.12431 6.05134 1.71798C6.45768 1.31165 7.00877 1.08338 7.58341 1.08338H36.3849C36.9589 1.08235 37.5098 1.30911 37.9167 1.71388L45.9486 9.75004Z" stroke="#4AB333" stroke-width="3" stroke-linecap="round" stroke-linejoin="round"/>
<path d="M14.7219 15.8028C13.0199 12.9712 17.092 10.3638 18.156 13.2723C19.978 18.2586 22.908 31.7479 16.298 40.916C14.4539 43.4707 10.4759 41.0514 12.6159 38.3895C15.68 34.7374 19.5004 31.8099 23.8072 29.8142C28.1142 27.8185 32.8022 26.8035 37.54 26.8405C40.876 26.9678 40.704 31.756 37.72 31.3881C32.9566 30.7585 28.402 29.0242 24.412 26.3204C20.4221 23.6167 17.1069 20.0171 14.7219 15.8028Z" stroke="#4AB333" stroke-width="2.5" stroke-linecap="round" stroke-linejoin="round"/>
</g>
<defs>
<clipPath id="clip0_245_462">
<rect width="52" height="52" fill="white"/>
</clipPath>
</defs>
</svg>
