<svg width="60" height="60" viewBox="0 0 60 60" fill="none" xmlns="http://www.w3.org/2000/svg">
<circle cx="30" cy="30" r="29.5" stroke="#F1F1F1"/>
<path d="M13 30.5C13 35.1413 14.8437 39.5925 18.1256 42.8744C21.4075 46.1563 25.8587 48 30.5 48C35.1413 48 39.5925 46.1563 42.8744 42.8744C46.1563 39.5925 48 35.1413 48 30.5M13 30.5C13 25.8587 14.8437 21.4075 18.1256 18.1256C21.4075 14.8437 25.8587 13 30.5 13C35.1413 13 39.5925 14.8437 42.8744 18.1256C46.1563 21.4075 48 25.8587 48 30.5M13 30.5H48M34.6272 13.4899C36.3735 18.9863 37.1965 24.7343 37.0626 30.4999C37.1965 36.2655 36.3735 42.0135 34.6272 47.5099M26.3727 13.4899C24.6264 18.9863 23.8035 24.7343 23.9373 30.4999C23.8035 36.2655 24.6264 42.0135 26.3727 47.5099" stroke="#F1F1F1" stroke-width="2" stroke-linecap="round" stroke-linejoin="round"/>
</svg>
