<svg width="37" height="37" viewBox="0 0 37 37" fill="none" xmlns="http://www.w3.org/2000/svg">
<path d="M2 18.5C2 22.8761 3.73839 27.0729 6.83274 30.1673C9.92709 33.2616 14.1239 35 18.5 35C22.8761 35 27.0729 33.2616 30.1673 30.1673C33.2616 27.0729 35 22.8761 35 18.5C35 14.1239 33.2616 9.92709 30.1673 6.83274C27.0729 3.73839 22.8761 2 18.5 2C14.1239 2 9.92709 3.73839 6.83274 6.83274C3.73839 9.92709 2 14.1239 2 18.5Z" stroke="#4AB333" stroke-width="3" stroke-linecap="round" stroke-linejoin="round"/>
<path d="M2 18.5H35" stroke="#4AB333" stroke-width="3" stroke-linecap="round" stroke-linejoin="round"/>
<path d="M22.3914 2.46191C24.0379 7.64427 24.8138 13.0637 24.6876 18.4999C24.8138 23.9361 24.0379 29.3556 22.3914 34.5379" stroke="#4AB333" stroke-width="3" stroke-linecap="round" stroke-linejoin="round"/>
<path d="M14.6086 2.46191C12.9621 7.64427 12.1861 13.0637 12.3123 18.4999C12.1861 23.9361 12.9621 29.3556 14.6086 34.5379" stroke="#4AB333" stroke-width="3" stroke-linecap="round" stroke-linejoin="round"/>
</svg>
