<svg width="96" height="96" viewBox="0 0 96 96" fill="none" xmlns="http://www.w3.org/2000/svg">
<path d="M55.148 62.904H56C56 62.904 69.812 62.932 70 62.904L78.72 61.304C79.6409 61.1355 80.4735 60.6493 81.0729 59.9301C81.6722 59.2109 82.0003 58.3042 82 57.368V35.632C82 34.8279 81.7576 34.0424 81.3045 33.3781C80.8514 32.7138 80.2086 32.2015 79.46 31.908L59.28 24C58.2853 23.6109 57.2048 23.4943 56.15 23.6624C55.0953 23.8305 54.1045 24.277 53.28 24.956L38.62 37.016C38.0639 37.4713 37.6848 38.1069 37.5484 38.8125C37.4121 39.5181 37.5271 40.2492 37.8735 40.8789C38.22 41.5085 38.7759 41.997 39.445 42.2595C40.114 42.5221 40.8538 42.542 41.536 42.316L58 36.904" stroke="#4AB333" stroke-width="2" stroke-linecap="round" stroke-linejoin="round"/>
<path d="M14 54.904L24.4 56.904L38.74 71.244C39.1926 71.6973 39.7475 72.0353 40.358 72.2295C40.9685 72.4237 41.6166 72.4685 42.248 72.36L44.248 72.012C45.0626 71.8719 45.8138 71.4828 46.3983 70.8983C46.9828 70.3138 47.3719 69.5626 47.512 68.748L48.208 64.696L55.044 63.516L56.224 56.684L63.06 55.504L64.236 48.668L53.836 38.268" stroke="#4AB333" stroke-width="2" stroke-linecap="round" stroke-linejoin="round"/>
<path d="M46.28 30.712L40.364 24.8C39.8047 24.2388 39.0914 23.8563 38.3145 23.7011C37.5375 23.5458 36.732 23.6248 36 23.928L24 28.904L14 30.904" stroke="#4AB333" stroke-width="2" stroke-linecap="round" stroke-linejoin="round"/>
<path d="M2 24.904H10C11.0609 24.904 12.0783 25.3254 12.8284 26.0756C13.5786 26.8257 14 27.8431 14 28.904V56.904C14 57.9649 13.5786 58.9823 12.8284 59.7324C12.0783 60.4826 11.0609 60.904 10 60.904H2V24.904Z" stroke="#4AB333" stroke-width="2" stroke-linecap="round" stroke-linejoin="round"/>
<path d="M86 28.904H94V64.904H86C84.9391 64.904 83.9217 64.4826 83.1716 63.7324C82.4214 62.9823 82 61.9649 82 60.904V32.904C82 31.8431 82.4214 30.8257 83.1716 30.0756C83.9217 29.3254 84.9391 28.904 86 28.904Z" stroke="#4AB333" stroke-width="2" stroke-linecap="round" stroke-linejoin="round"/>
</svg>
