<svg width="40" height="40" viewBox="0 0 40 40" fill="none" xmlns="http://www.w3.org/2000/svg">
<rect width="40" height="40" fill="white" fill-opacity="0.01"/>
<path fill-rule="evenodd" clip-rule="evenodd" d="M20.0007 4.24876C28.6861 4.24876 35.7517 11.3144 35.7517 19.9998C35.7517 28.6855 28.6861 35.7512 20.0007 35.7512C11.3153 35.7512 4.24893 28.6855 4.24893 19.9998C4.24893 11.3144 11.3153 4.24876 20.0007 4.24876ZM20.0007 38.3335C30.1101 38.3335 38.334 30.1092 38.334 19.9998C38.334 9.89071 30.1101 1.66644 20.0007 1.66644C9.89126 1.66644 1.66699 9.89071 1.66699 19.9998C1.66699 30.1092 9.89126 38.3335 20.0007 38.3335Z" fill="#4AB333"/>
<path fill-rule="evenodd" clip-rule="evenodd" d="M16.9484 28.0903C16.2354 28.0903 15.6572 28.6685 15.6572 29.3815C15.6572 30.094 16.2354 30.6726 16.9484 30.6726H25.4531C26.1661 30.6726 26.7443 30.094 26.7443 29.3815C26.7443 28.6685 26.1661 28.0903 25.4531 28.0903H22.4917V16.6856C22.4917 15.973 21.9135 15.3944 21.2009 15.3944H16.9484C16.2354 15.3944 15.6572 15.973 15.6572 16.6856C15.6572 17.3985 16.2354 17.9767 16.9484 17.9767H19.9098V28.0903H16.9484Z" fill="#4AB333"/>
<path fill-rule="evenodd" clip-rule="evenodd" d="M19.4337 13.2386C20.5878 13.2386 21.5236 12.3028 21.5236 11.1487C21.5236 9.99416 20.5878 9.05872 19.4337 9.05872C18.2796 9.05872 17.3438 9.99416 17.3438 11.1487C17.3438 12.3028 18.2796 13.2386 19.4337 13.2386Z" fill="#4AB333"/>
</svg>
