<svg width="60" height="60" viewBox="0 0 60 60" fill="none" xmlns="http://www.w3.org/2000/svg">
<circle cx="30" cy="30" r="29.5" stroke="#F1F1F1"/>
<path d="M34.875 37.3242C35.7701 37.3242 36.6285 37.6853 37.2615 38.328C37.8944 38.9707 38.25 39.8424 38.25 40.7513V43.0391L38.238 43.2036C37.773 46.4433 34.908 48 30.1005 48C25.311 48 22.3995 46.4616 21.771 43.2599L21.75 43.036V40.7513C21.75 39.8424 22.1056 38.9707 22.7385 38.328C23.3715 37.6853 24.2299 37.3242 25.125 37.3242H34.875ZM34.875 39.6089H25.125C24.8266 39.6089 24.5405 39.7293 24.3295 39.9435C24.1185 40.1578 24 40.4483 24 40.7513V42.9142C24.42 44.742 26.325 45.7153 30.1005 45.7153C33.8745 45.7153 35.6955 44.7542 36 42.9492V40.7513C36 40.4483 35.8815 40.1578 35.6705 39.9435C35.4595 39.7293 35.1734 39.6089 34.875 39.6089ZM36.366 28.1837L44.625 28.1853C45.5201 28.1853 46.3786 28.5463 47.0115 29.189C47.6444 29.8317 48 30.7034 48 31.6124V33.9001L47.988 34.0646C47.523 37.3044 44.658 38.8611 39.8505 38.8611L39.378 38.8565C38.9351 37.7723 38.1277 36.8828 37.0995 36.3463C37.872 36.4986 38.787 36.5763 39.8505 36.5763C43.6245 36.5763 45.4455 35.6152 45.75 33.8103V31.6124C45.75 31.3094 45.6315 31.0188 45.4205 30.8046C45.2095 30.5903 44.9234 30.47 44.625 30.47H36.75C36.75 29.6688 36.615 28.8981 36.366 28.1837ZM15.375 28.1853L23.634 28.1837C23.4222 28.7922 23.2964 29.4281 23.2605 30.0724L23.25 30.47H15.375C15.0766 30.47 14.7905 30.5903 14.5795 30.8046C14.3685 31.0188 14.25 31.3094 14.25 31.6124V33.7752C14.67 35.603 16.575 36.5763 20.3505 36.5763C21.2835 36.5763 22.0965 36.5169 22.7985 36.4012C21.8167 36.9429 21.0474 37.8101 20.619 38.858L20.349 38.8611C15.561 38.8611 12.6495 37.3227 12.021 34.121L12 33.8971V31.6124C12 30.7034 12.3556 29.8317 12.9885 29.189C13.6214 28.5463 14.4799 28.1853 15.375 28.1853ZM30 25.1389C31.3924 25.1389 32.7277 25.7006 33.7123 26.7004C34.6969 27.7001 35.25 29.0561 35.25 30.47C35.25 31.8839 34.6969 33.2398 33.7123 34.2396C32.7277 35.2394 31.3924 35.801 30 35.801C28.6076 35.801 27.2723 35.2394 26.2877 34.2396C25.3031 33.2398 24.75 31.8839 24.75 30.47C24.75 29.0561 25.3031 27.7001 26.2877 26.7004C27.2723 25.7006 28.6076 25.1389 30 25.1389ZM30 27.4237C29.2044 27.4237 28.4413 27.7446 27.8787 28.3159C27.3161 28.8872 27 29.6621 27 30.47C27 31.2779 27.3161 32.0528 27.8787 32.6241C28.4413 33.1954 29.2044 33.5163 30 33.5163C30.7956 33.5163 31.5587 33.1954 32.1213 32.6241C32.6839 32.0528 33 31.2779 33 30.47C33 29.6621 32.6839 28.8872 32.1213 28.3159C31.5587 27.7446 30.7956 27.4237 30 27.4237ZM39.75 16C41.1424 16 42.4777 16.5617 43.4623 17.5614C44.4469 18.5612 45 19.9172 45 21.331C45 22.7449 44.4469 24.1009 43.4623 25.1007C42.4777 26.1004 41.1424 26.6621 39.75 26.6621C38.3576 26.6621 37.0223 26.1004 36.0377 25.1007C35.0531 24.1009 34.5 22.7449 34.5 21.331C34.5 19.9172 35.0531 18.5612 36.0377 17.5614C37.0223 16.5617 38.3576 16 39.75 16ZM20.25 16C21.6424 16 22.9777 16.5617 23.9623 17.5614C24.9469 18.5612 25.5 19.9172 25.5 21.331C25.5 22.7449 24.9469 24.1009 23.9623 25.1007C22.9777 26.1004 21.6424 26.6621 20.25 26.6621C18.8576 26.6621 17.5223 26.1004 16.5377 25.1007C15.5531 24.1009 15 22.7449 15 21.331C15 19.9172 15.5531 18.5612 16.5377 17.5614C17.5223 16.5617 18.8576 16 20.25 16ZM39.75 18.2847C38.9544 18.2847 38.1913 18.6057 37.6287 19.177C37.0661 19.7483 36.75 20.5231 36.75 21.331C36.75 22.139 37.0661 22.9138 37.6287 23.4851C38.1913 24.0564 38.9544 24.3774 39.75 24.3774C40.5456 24.3774 41.3087 24.0564 41.8713 23.4851C42.4339 22.9138 42.75 22.139 42.75 21.331C42.75 20.5231 42.4339 19.7483 41.8713 19.177C41.3087 18.6057 40.5456 18.2847 39.75 18.2847ZM20.25 18.2847C19.4544 18.2847 18.6913 18.6057 18.1287 19.177C17.5661 19.7483 17.25 20.5231 17.25 21.331C17.25 22.139 17.5661 22.9138 18.1287 23.4851C18.6913 24.0564 19.4544 24.3774 20.25 24.3774C21.0456 24.3774 21.8087 24.0564 22.3713 23.4851C22.9339 22.9138 23.25 22.139 23.25 21.331C23.25 20.5231 22.9339 19.7483 22.3713 19.177C21.8087 18.6057 21.0456 18.2847 20.25 18.2847Z" fill="#F1F1F1"/>
</svg>
