<svg width="50" height="50" viewBox="0 0 50 50" fill="none" xmlns="http://www.w3.org/2000/svg">
<circle cx="25" cy="25" r="25" fill="#4AB333"/>
<path fill-rule="evenodd" clip-rule="evenodd" d="M21.3008 11.5405C20.9846 11.2306 20.5398 11.0895 20.1027 11.1606C19.9422 11.1866 19.7176 11.282 18.6522 11.8343L18.3671 11.9821C17.3517 12.5085 17.0805 12.6622 16.827 12.8992C16.5324 13.1747 16.1796 13.7355 16.0589 14.1202C15.9515 14.4624 15.9363 14.6824 15.9096 15.555C15.7783 19.849 16.7085 24.2355 18.8282 28.3244C20.9479 32.4132 23.9966 35.7015 27.5813 38.069C28.3098 38.5501 28.4984 38.6645 28.8399 38.7739C29.2239 38.897 29.8855 38.9319 30.2804 38.8499C30.6202 38.7794 30.9021 38.6463 31.9174 38.1199L32.2026 37.9721C33.268 37.4198 33.4753 37.2912 33.5892 37.1751C33.8991 36.8588 34.0402 36.414 33.9692 35.9769C33.9431 35.8164 33.8477 35.5918 33.2954 34.5265L33.1127 34.1739C32.7498 33.474 32.6677 33.3334 32.6001 33.251C32.2509 32.8255 31.6838 32.6456 31.1531 32.7921C31.0504 32.8205 30.9023 32.888 30.2023 33.2509C30.1885 33.2581 30.1743 33.2655 30.1597 33.2731C29.9977 33.3574 29.7885 33.4664 29.5545 33.5425C28.7196 33.8139 27.7456 33.6784 27.0165 33.1894C26.8131 33.053 26.6567 32.9054 26.5375 32.7929C26.5279 32.7839 26.5186 32.7751 26.5096 32.7666C24.701 31.0656 23.1455 29.0361 21.9402 26.7111C20.7348 24.386 19.9727 21.9452 19.625 19.4868C19.6233 19.4745 19.6215 19.4619 19.6196 19.4489C19.5964 19.2866 19.566 19.0738 19.5717 18.8289C19.5923 17.9513 20.0429 17.0772 20.7459 16.5513C20.9429 16.404 21.1526 16.2958 21.3149 16.212C21.3296 16.2045 21.3438 16.1971 21.3576 16.19C22.0576 15.8271 22.1981 15.745 22.2805 15.6774C22.706 15.3282 22.8859 14.7611 22.7394 14.2304C22.7111 14.1277 22.6435 13.9796 22.2806 13.2796L22.0979 12.9271C21.5455 11.8617 21.417 11.6544 21.3008 11.5405ZM19.6248 8.22042C20.9968 7.99738 22.3932 8.44025 23.3859 9.41331C23.8906 9.908 24.246 10.5958 24.6514 11.3804C24.6814 11.4385 24.7117 11.4971 24.7423 11.5561L24.9251 11.9087C24.9453 11.9476 24.9653 11.9862 24.9852 12.0244C25.2533 12.5404 25.4874 12.9911 25.6107 13.4377C26.0706 15.1035 25.506 16.8838 24.1701 17.9801C23.8119 18.274 23.3608 18.5073 22.8443 18.7745C22.8061 18.7943 22.7675 18.8143 22.7285 18.8344C22.6756 18.8619 22.6351 18.8829 22.6001 18.9013C22.5817 18.911 22.5668 18.919 22.5546 18.9256C22.5555 18.9326 22.5565 18.9406 22.5577 18.9497C22.562 18.9817 22.5672 19.0188 22.5744 19.0697C22.8757 21.1998 23.5362 23.3176 24.5847 25.3401C25.6332 27.3626 26.9832 29.1229 28.5503 30.5968C28.5878 30.632 28.615 30.6576 28.6387 30.6796C28.6454 30.6858 28.6514 30.6913 28.6566 30.6961C28.6691 30.6899 28.6842 30.6823 28.7027 30.6728C28.7379 30.6549 28.7784 30.6339 28.8314 30.6064C28.8703 30.5862 28.9089 30.5662 28.9471 30.5464C29.4631 30.2783 29.9138 30.0441 30.3604 29.9208C32.0262 29.4609 33.8065 30.0255 34.9028 31.3614C35.1967 31.7196 35.43 32.1707 35.6972 32.6872C35.717 32.7254 35.737 32.764 35.7571 32.803L35.9399 33.1555C35.9705 33.2146 36.001 33.2731 36.0311 33.3311C36.4387 34.1146 36.7959 34.8014 36.9093 35.499C37.1323 36.8711 36.6895 38.2674 35.7164 39.2602C35.2217 39.7648 34.5339 40.1202 33.7493 40.5257C33.6912 40.5557 33.6327 40.5859 33.5736 40.6166L33.2884 40.7644C33.2463 40.7862 33.2047 40.8078 33.1635 40.8292C32.3239 41.265 31.6727 41.6031 30.8859 41.7665C29.9878 41.9529 28.8044 41.8905 27.9309 41.6106C27.1672 41.3659 26.6592 41.0301 26.0117 40.6021C25.9879 40.5864 25.9639 40.5706 25.9398 40.5546C21.942 37.9143 18.5432 34.2466 16.1837 29.6953C13.8243 25.144 12.7858 20.2526 12.9322 15.4639C12.9331 15.435 12.934 15.4063 12.9349 15.3778C12.9583 14.602 12.9767 13.9934 13.2169 13.2282C13.4916 12.353 14.1226 11.35 14.7925 10.7235C15.3795 10.1747 16.0311 9.83729 16.8712 9.40236C16.9124 9.38104 16.954 9.35949 16.9961 9.33766L17.2813 9.18982C17.3404 9.15918 17.3989 9.12875 17.4569 9.09859C18.2404 8.69106 18.9272 8.33382 19.6248 8.22042Z" fill="#F1F1F1"/>
</svg>
