<svg width="30" height="30" viewBox="0 0 30 30" fill="none" xmlns="http://www.w3.org/2000/svg">
<g id="Icons/Search">
<rect width="30" height="30" fill="#A0A0A0"/>
<rect id="Bg" width="30" height="30" fill="white" fill-opacity="0.01"/>
<path id="Fill 1" fill-rule="evenodd" clip-rule="evenodd" d="M11.9446 20.7022C7.11549 20.7022 3.18672 16.7734 3.18672 11.9443C3.18672 7.11521 7.11549 3.18644 11.9446 3.18644C16.7734 3.18644 20.7025 7.11521 20.7025 11.9443C20.7025 16.7734 16.7734 20.7022 11.9446 20.7022ZM28.4663 27.097L20.1553 18.7858C21.7038 16.9301 22.6389 14.545 22.6389 11.9443C22.6389 6.04719 17.8414 1.25 11.9446 1.25C6.04747 1.25 1.25 6.04719 1.25 11.9443C1.25 17.8414 6.04747 22.6389 11.9446 22.6389C14.545 22.6389 16.9301 21.7038 18.7858 20.155L27.0973 28.4663C27.2864 28.6554 27.534 28.75 27.7819 28.75C28.0295 28.75 28.2774 28.6554 28.4663 28.4663C28.8446 28.0882 28.8446 27.475 28.4663 27.097Z" fill="#F1F1F1"/>
</g>
</svg>
