<svg width="60" height="60" viewBox="0 0 60 60" fill="none" xmlns="http://www.w3.org/2000/svg">
<circle cx="30" cy="30" r="29.5" stroke="#F1F1F1"/>
<path fill-rule="evenodd" clip-rule="evenodd" d="M29.9997 26.8013C29.151 26.8013 28.337 27.1385 27.7369 27.7386C27.1368 28.3387 26.7997 29.1526 26.7997 30.0013C26.7997 30.85 27.1368 31.6639 27.7369 32.264C28.337 32.8641 29.151 33.2013 29.9997 33.2013C30.8483 33.2013 31.6623 32.8641 32.2624 32.264C32.8625 31.6639 33.1996 30.85 33.1996 30.0013C33.1996 29.1526 32.8625 28.3387 32.2624 27.7386C31.6623 27.1385 30.8483 26.8013 29.9997 26.8013ZM24.7997 30.0013C24.7997 28.6222 25.3475 27.2995 26.3227 26.3244C27.2979 25.3492 28.6205 24.8013 29.9997 24.8013C31.3788 24.8013 32.7014 25.3492 33.6766 26.3244C34.6518 27.2995 35.1996 28.6222 35.1996 30.0013C35.1996 31.3804 34.6518 32.7031 33.6766 33.6782C32.7014 34.6534 31.3788 35.2013 29.9997 35.2013C28.6205 35.2013 27.2979 34.6534 26.3227 33.6782C25.3475 32.7031 24.7997 31.3804 24.7997 30.0013ZM28.2997 23.0013C28.2997 22.7361 28.405 22.4818 28.5926 22.2942C28.7801 22.1067 29.0344 22.0013 29.2997 22.0013H30.6997C30.9649 22.0013 31.2192 22.1067 31.4068 22.2942C31.5943 22.4818 31.6996 22.7361 31.6996 23.0013C31.6996 23.2666 31.5943 23.5209 31.4068 23.7084C31.2192 23.896 30.9649 24.0013 30.6997 24.0013H29.2997C29.0344 24.0013 28.7801 23.896 28.5926 23.7084C28.405 23.5209 28.2997 23.2666 28.2997 23.0013Z" fill="#F1F1F1"/>
<path fill-rule="evenodd" clip-rule="evenodd" d="M28.9995 26.5014V23.7014H30.9995V26.5014H28.9995ZM33.4925 23.6944C33.68 23.5069 33.9343 23.4016 34.1995 23.4016C34.4646 23.4016 34.719 23.5069 34.9065 23.6944L36.3065 25.0944C36.4886 25.283 36.5894 25.5356 36.5871 25.7978C36.5849 26.06 36.4797 26.3108 36.2943 26.4962C36.1089 26.6816 35.8581 26.7868 35.5959 26.7891C35.3337 26.7913 35.0811 26.6905 34.8925 26.5084L33.4925 25.1084C33.305 24.9209 33.1997 24.6666 33.1997 24.4014C33.1997 24.1362 33.305 23.8819 33.4925 23.6944Z" fill="#F1F1F1"/>
<path fill-rule="evenodd" clip-rule="evenodd" d="M32.0927 26.4943L34.1926 24.3943L35.6066 25.8083L33.5066 27.9083L32.0927 26.4943ZM36.9996 28.3013C37.2648 28.3013 37.5192 28.4066 37.7067 28.5942C37.8943 28.7817 37.9996 29.036 37.9996 29.3013V30.7013C37.9996 30.9665 37.8943 31.2208 37.7067 31.4084C37.5192 31.5959 37.2648 31.7013 36.9996 31.7013C36.7344 31.7013 36.4801 31.5959 36.2925 31.4084C36.105 31.2208 35.9996 30.9665 35.9996 30.7013V29.3013C35.9996 29.036 36.105 28.7817 36.2925 28.5942C36.4801 28.4066 36.7344 28.3013 36.9996 28.3013Z" fill="#F1F1F1"/>
<path fill-rule="evenodd" clip-rule="evenodd" d="M33.1996 30.0011C33.1996 29.7359 33.3049 29.4815 33.4925 29.294C33.68 29.1065 33.9344 29.0011 34.1996 29.0011H36.9996C37.2648 29.0011 37.5191 29.1065 37.7067 29.294C37.8942 29.4815 37.9996 29.7359 37.9996 30.0011C37.9996 30.2663 37.8942 30.5207 37.7067 30.7082C37.5191 30.8957 37.2648 31.0011 36.9996 31.0011H34.1996C33.9344 31.0011 33.68 30.8957 33.4925 30.7082C33.3049 30.5207 33.1996 30.2663 33.1996 30.0011ZM37.0066 33.4941C37.194 33.6816 37.2993 33.9359 37.2993 34.2011C37.2993 34.4662 37.194 34.7205 37.0066 34.9081L35.6066 36.3081C35.5143 36.4036 35.404 36.4798 35.282 36.5322C35.16 36.5846 35.0288 36.6122 34.896 36.6133C34.7632 36.6145 34.6315 36.5892 34.5086 36.5389C34.3857 36.4886 34.2741 36.4143 34.1802 36.3205C34.0863 36.2266 34.012 36.1149 33.9618 35.992C33.9115 35.8691 33.8862 35.7374 33.8873 35.6047C33.8885 35.4719 33.9161 35.3407 33.9685 35.2187C34.0209 35.0967 34.0971 34.9863 34.1926 34.8941L35.5926 33.4941C35.7801 33.3066 36.0344 33.2013 36.2996 33.2013C36.5647 33.2013 36.819 33.3066 37.0066 33.4941Z" fill="#F1F1F1"/>
<path fill-rule="evenodd" clip-rule="evenodd" d="M34.2067 32.0941L36.3066 34.1941L34.8927 35.6081L32.7927 33.5081L34.2067 32.0941ZM28.2997 37.0011C28.2997 36.7359 28.405 36.4815 28.5926 36.294C28.7801 36.1065 29.0345 36.0011 29.2997 36.0011H30.6997C30.9649 36.0011 31.2192 36.1065 31.4068 36.294C31.5943 36.4815 31.6997 36.7359 31.6997 37.0011C31.6997 37.2663 31.5943 37.5207 31.4068 37.7082C31.2192 37.8957 30.9649 38.0011 30.6997 38.0011H29.2997C29.0345 38.0011 28.7801 37.8957 28.5926 37.7082C28.405 37.5207 28.2997 37.2663 28.2997 37.0011Z" fill="#F1F1F1"/>
<path fill-rule="evenodd" clip-rule="evenodd" d="M29.9998 33.2009C30.265 33.2009 30.5193 33.3063 30.7069 33.4938C30.8944 33.6814 30.9998 33.9357 30.9998 34.2009V37.0009C30.9998 37.2661 30.8944 37.5205 30.7069 37.708C30.5193 37.8955 30.265 38.0009 29.9998 38.0009C29.7346 38.0009 29.4802 37.8955 29.2927 37.708C29.1051 37.5205 28.9998 37.2661 28.9998 37.0009V34.2009C28.9998 33.9357 29.1051 33.6814 29.2927 33.4938C29.4802 33.3063 29.7346 33.2009 29.9998 33.2009ZM23.6928 33.4939C23.8803 33.3065 24.1346 33.2011 24.3998 33.2011C24.665 33.2011 24.9193 33.3065 25.1068 33.4939L26.5068 34.8939C26.689 35.0825 26.7897 35.3351 26.7875 35.5973C26.7852 35.8595 26.68 36.1103 26.4946 36.2957C26.3092 36.4811 26.0584 36.5863 25.7962 36.5886C25.534 36.5909 25.2814 36.4901 25.0928 36.3079L23.6928 34.9079C23.5053 34.7204 23.4 34.4661 23.4 34.2009C23.4 33.9358 23.5053 33.6815 23.6928 33.4939Z" fill="#F1F1F1"/>
<path fill-rule="evenodd" clip-rule="evenodd" d="M27.9068 33.5079L25.8069 35.6079L24.3929 34.1939L26.4929 32.0939L27.9068 33.5079ZM22.9999 28.3009C23.2651 28.3009 23.5194 28.4063 23.707 28.5938C23.8945 28.7813 23.9999 29.0357 23.9999 29.3009V30.7009C23.9999 30.9661 23.8945 31.2205 23.707 31.408C23.5194 31.5955 23.2651 31.7009 22.9999 31.7009C22.7347 31.7009 22.4803 31.5955 22.2928 31.408C22.1052 31.2205 21.9999 30.9661 21.9999 30.7009V29.3009C21.9999 29.0357 22.1052 28.7813 22.2928 28.5938C22.4803 28.4063 22.7347 28.3009 22.9999 28.3009Z" fill="#F1F1F1"/>
<path fill-rule="evenodd" clip-rule="evenodd" d="M21.9996 30.0014C21.9996 29.7361 22.105 29.4818 22.2925 29.2943C22.4801 29.1067 22.7344 29.0014 22.9996 29.0014H25.7996C26.0648 29.0014 26.3192 29.1067 26.5067 29.2943C26.6943 29.4818 26.7996 29.7361 26.7996 30.0014C26.7996 30.2666 26.6943 30.5209 26.5067 30.7085C26.3192 30.896 26.0648 31.0014 25.7996 31.0014H22.9996C22.7344 31.0014 22.4801 30.896 22.2925 30.7085C22.105 30.5209 21.9996 30.2666 21.9996 30.0014ZM26.5066 23.6944C26.6941 23.8819 26.7994 24.1362 26.7994 24.4014C26.7994 24.6666 26.6941 24.9209 26.5066 25.1084L25.1066 26.5084C24.918 26.6905 24.6654 26.7913 24.4032 26.7891C24.141 26.7868 23.8902 26.6816 23.7048 26.4962C23.5194 26.3108 23.4142 26.06 23.412 25.7978C23.4097 25.5356 23.5105 25.283 23.6926 25.0944L25.0926 23.6944C25.2801 23.5069 25.5345 23.4016 25.7996 23.4016C26.0648 23.4016 26.3191 23.5069 26.5066 23.6944Z" fill="#F1F1F1"/>
<path fill-rule="evenodd" clip-rule="evenodd" d="M26.4927 27.9083L24.3927 25.8083L25.8067 24.3943L27.9067 26.4943L26.4927 27.9083Z" fill="#F1F1F1"/>
<path fill-rule="evenodd" clip-rule="evenodd" d="M30 13.0024C34.8309 12.959 39.6182 13.9189 44.0589 15.8214L44.0739 15.8284C44.6489 16.0857 45.1374 16.5034 45.4809 17.0314C45.8229 17.5584 46.0039 18.1734 45.9999 18.8014V30.3033C45.9999 33.2373 45.3399 36.7593 43.2359 40.0932C41.1259 43.4362 37.6069 46.5212 32.01 48.6352C30.7145 49.124 29.2854 49.124 27.99 48.6352C22.392 46.5182 18.873 43.4452 16.763 40.1082C14.659 36.7813 14 33.2593 14 30.3023V18.8014C13.9968 18.1732 14.1776 17.5579 14.52 17.0314C14.8633 16.5035 15.3514 16.0858 15.926 15.8284L15.941 15.8214C20.3817 13.9186 25.169 12.9583 30 13.0014V13.0024ZM15 18.7974H16V30.3023C16 32.9703 16.594 36.0993 18.453 39.0383C20.305 41.9682 23.457 44.7822 28.697 46.7642C29.5371 47.0811 30.4639 47.0811 31.304 46.7642C36.5389 44.7862 39.6909 41.9612 41.5439 39.0243C43.4049 36.0763 43.9999 32.9453 43.9999 30.3013V18.7914C44.0014 18.5532 43.9329 18.3199 43.8029 18.1204C43.6729 17.9204 43.4859 17.7574 43.2619 17.6554C39.0753 15.8639 34.5625 14.9608 30.009 15.0034H29.991C25.4374 14.9608 20.9246 15.8639 16.738 17.6554C16.5176 17.7556 16.3303 17.9166 16.198 18.1194C16.0676 18.3191 15.9987 18.5528 16 18.7914L15 18.7984V18.7974Z" fill="#F1F1F1"/>
</svg>
