<svg width="20" height="22" viewBox="0 0 20 22" fill="none" xmlns="http://www.w3.org/2000/svg">
<path d="M14.6666 7V5.03334C14.6666 4.4205 14.5459 3.81367 14.3114 3.24748C14.0769 2.68129 13.7331 2.16684 13.2998 1.7335C12.8665 1.30016 12.352 0.956419 11.7858 0.721897C11.2196 0.487375 10.6128 0.366669 9.99996 0.366669C9.38712 0.366669 8.78029 0.487375 8.2141 0.721897C7.64792 0.956419 7.13347 1.30016 6.70013 1.7335C6.26679 2.16684 5.92304 2.68129 5.68852 3.24748C5.454 3.81367 5.33329 4.4205 5.33329 5.03334V9.7C5.33329 9.87681 5.40353 10.0464 5.52855 10.1714C5.65358 10.2964 5.82315 10.3667 5.99996 10.3667C6.17677 10.3667 6.34634 10.2964 6.47136 10.1714C6.59639 10.0464 6.66663 9.87681 6.66663 9.7V8.33334H12V7H6.66663V5.03334C6.66663 4.14928 7.01782 3.30143 7.64294 2.67631C8.26806 2.05119 9.1159 1.7 9.99996 1.7C10.884 1.7 11.7319 2.05119 12.357 2.67631C12.9821 3.30143 13.3333 4.14928 13.3333 5.03334V9.66667C13.3333 9.84348 13.4035 10.0131 13.5286 10.1381C13.6536 10.2631 13.8231 10.3333 14 10.3333C14.1768 10.3333 14.3463 10.2631 14.4714 10.1381C14.5964 10.0131 14.6666 9.84348 14.6666 9.66667V8.33334H18V20.3333H1.99996V8.33334H3.99996V7H0.666626V20.3933C0.666626 20.731 0.80078 21.0549 1.03958 21.2937C1.27837 21.5325 1.60225 21.6667 1.93996 21.6667H18.06C18.3977 21.6667 18.7215 21.5325 18.9603 21.2937C19.1991 21.0549 19.3333 20.731 19.3333 20.3933V7H14.6666Z" fill="#FEFBF8"/>
</svg>
