<svg width="31" height="31" viewBox="0 0 31 31" fill="none" xmlns="http://www.w3.org/2000/svg">
<path d="M3.87476 6.45837V5.70837C3.46054 5.70837 3.12476 6.04416 3.12476 6.45837H3.87476ZM27.1248 6.45837H27.8748C27.8748 6.04416 27.539 5.70837 27.1248 5.70837V6.45837ZM27.1248 24.5417V25.2917C27.539 25.2917 27.8748 24.9559 27.8748 24.5417H27.1248ZM3.87476 24.5417H3.12476C3.12476 24.9559 3.46054 25.2917 3.87476 25.2917V24.5417ZM4.23899 8.38609C3.8769 8.18493 3.4203 8.31539 3.21914 8.67747C3.01798 9.03956 3.14844 9.49617 3.51052 9.69733L4.23899 8.38609ZM15.4998 15.5L15.1355 16.1557C15.362 16.2815 15.6375 16.2815 15.864 16.1557L15.4998 15.5ZM27.489 9.69733C27.8511 9.49617 27.9815 9.03956 27.7804 8.67747C27.5792 8.31539 27.1226 8.18493 26.7605 8.38609L27.489 9.69733ZM3.87476 7.20837H27.1248V5.70837H3.87476V7.20837ZM26.3748 6.45837V24.5417H27.8748V6.45837H26.3748ZM27.1248 23.7917H3.87476V25.2917H27.1248V23.7917ZM4.62476 24.5417V6.45837H3.12476V24.5417H4.62476ZM3.51052 9.69733L15.1355 16.1557L15.864 14.8444L4.23899 8.38609L3.51052 9.69733ZM15.864 16.1557L27.489 9.69733L26.7605 8.38609L15.1355 14.8444L15.864 16.1557Z" fill="#00407C"/>
</svg>
