<svg width="31" height="29" viewBox="0 0 31 29" fill="none" xmlns="http://www.w3.org/2000/svg">
<path d="M15.5001 14.7395C14.0971 14.7395 12.7256 14.3235 11.559 13.544C10.3924 12.7645 9.48322 11.6566 8.94631 10.3604C8.4094 9.0642 8.26892 7.63788 8.54264 6.26183C8.81635 4.88578 9.49196 3.62179 10.484 2.62972C11.4761 1.63764 12.7401 0.962024 14.1162 0.68831C15.4922 0.414596 16.9185 0.555076 18.2147 1.09198C19.511 1.62889 20.6189 2.53812 21.3983 3.70468C22.1778 4.87124 22.5938 6.24274 22.5938 7.64575C22.5938 9.52713 21.8465 11.3315 20.5161 12.6618C19.1858 13.9921 17.3815 14.7395 15.5001 14.7395ZM15.5001 2.9895C14.5792 2.9895 13.6789 3.26259 12.9132 3.77422C12.1475 4.28586 11.5507 5.01307 11.1983 5.86388C10.8458 6.7147 10.7536 7.65092 10.9333 8.55414C11.113 9.45737 11.5564 10.287 12.2076 10.9382C12.8588 11.5894 13.6885 12.0329 14.5917 12.2125C15.4949 12.3922 16.4311 12.3 17.282 11.9476C18.1328 11.5951 18.86 10.9983 19.3716 10.2326C19.8832 9.46691 20.1563 8.56667 20.1563 7.64575C20.1563 6.41084 19.6658 5.22651 18.7925 4.35329C17.9193 3.48007 16.735 2.9895 15.5001 2.9895ZM30.0646 28.0853C29.8371 28.3128 29.53 28.4428 29.2084 28.4478C28.8868 28.4428 28.5797 28.3128 28.3522 28.0853C28.1243 27.8574 27.9943 27.5496 27.9897 27.2273C27.9895 26.2522 27.8571 25.3388 27.484 24.5199C27.1089 23.6966 26.4972 22.9837 25.5634 22.4025C23.7107 21.2494 20.5895 20.6145 15.5001 20.6145C10.4106 20.6145 7.28945 21.2494 5.43678 22.4025C4.503 22.9837 3.89128 23.6966 3.51616 24.5199C3.14284 25.3393 3.0105 26.2533 3.0105 27.2291C3.0105 27.5523 2.88209 27.8623 2.65353 28.0909C2.42498 28.3194 2.11498 28.4478 1.79175 28.4478C1.46851 28.4478 1.15852 28.3194 0.929962 28.0909C0.701402 27.8623 0.572998 27.5523 0.572998 27.2291C0.572998 24.9548 1.22156 23.2682 2.24917 22.0094C3.27988 20.7469 4.70715 19.8963 6.29255 19.325C9.47138 18.1793 13.2219 18.177 15.5001 18.177C17.7782 18.177 21.5288 18.1793 24.7076 19.325C26.293 19.8963 27.7203 20.7469 28.751 22.0094C29.7783 23.2679 30.4268 24.9539 30.4272 27.2274C30.4226 27.5496 30.2925 27.8574 30.0646 28.0853Z" fill="#A5A4A4" stroke="#D9D9D9" stroke-width="0.5"/>
</svg>
