<svg width="58" height="58" viewBox="0 0 58 58" fill="none" xmlns="http://www.w3.org/2000/svg">
<circle cx="29" cy="29" r="29" fill="#F2C703"/>
<path d="M26.5838 35.9702V35.7784C26.6051 33.7436 26.8182 32.1243 27.223 30.9205C27.6278 29.7166 28.2031 28.7418 28.9489 27.9961C29.6946 27.2504 30.5895 26.5632 31.6335 25.9347C32.2621 25.5511 32.8267 25.0984 33.3274 24.5763C33.8281 24.0437 34.2223 23.4311 34.5099 22.7386C34.8082 22.0462 34.9574 21.2791 34.9574 20.4375C34.9574 19.3935 34.7124 18.4879 34.2223 17.7209C33.7322 16.9538 33.0771 16.3626 32.2567 15.9471C31.4364 15.5316 30.5256 15.3239 29.5241 15.3239C28.6506 15.3239 27.8089 15.505 26.9993 15.8672C26.1896 16.2294 25.5131 16.7994 24.9698 17.5771C24.4265 18.3548 24.1122 19.3722 24.027 20.6293H20C20.0852 18.8182 20.554 17.2681 21.4062 15.979C22.2692 14.69 23.4038 13.7045 24.81 13.0227C26.2269 12.3409 27.7983 12 29.5241 12C31.3991 12 33.0291 12.3729 34.4141 13.1186C35.8097 13.8643 36.8857 14.8871 37.642 16.1868C38.4091 17.4865 38.7926 18.9673 38.7926 20.6293C38.7926 21.8011 38.6115 22.8612 38.2493 23.8093C37.8977 24.7575 37.3864 25.6044 36.7152 26.3501C36.0547 27.0959 35.2557 27.7564 34.3182 28.3317C33.3807 28.9176 32.6296 29.5355 32.065 30.1854C31.5004 30.8246 31.0902 31.5863 30.8345 32.4705C30.5788 33.3548 30.4403 34.4574 30.419 35.7784V35.9702H26.5838ZM28.6293 45.4304C27.8409 45.4304 27.1644 45.1481 26.5998 44.5835C26.0352 44.0188 25.7528 43.3423 25.7528 42.554C25.7528 41.7656 26.0352 41.0891 26.5998 40.5245C27.1644 39.9599 27.8409 39.6776 28.6293 39.6776C29.4176 39.6776 30.0941 39.9599 30.6587 40.5245C31.2234 41.0891 31.5057 41.7656 31.5057 42.554C31.5057 43.076 31.3725 43.5554 31.1062 43.9922C30.8505 44.429 30.5043 44.7805 30.0675 45.0469C29.6413 45.3026 29.1619 45.4304 28.6293 45.4304Z" fill="#FEFBF8"/>
</svg>
