<svg width="34" height="33" viewBox="0 0 34 33" fill="none" xmlns="http://www.w3.org/2000/svg">
<path fill-rule="evenodd" clip-rule="evenodd" d="M14.4998 22.5664C9.53791 22.5664 5.49998 18.608 5.49998 13.7438C5.49998 8.87963 9.53791 4.92123 14.4998 4.92123C19.4618 4.92123 23.4997 8.87963 23.4997 13.7438C23.4997 18.608 19.4618 22.5664 14.4998 22.5664ZM31.9135 28.0422L24.9836 21.2488C26.5576 19.1392 27.4996 16.5513 27.4996 13.7437C27.4996 6.71704 21.6677 1 14.4998 1C7.3319 1 1.5 6.71704 1.5 13.7437C1.5 20.7704 7.3319 26.4875 14.4998 26.4875C17.3637 26.4875 20.0037 25.564 22.1557 24.0211L29.0856 30.8145C29.4755 31.1968 29.9875 31.3889 30.4995 31.3889C31.0115 31.3889 31.5235 31.1968 31.9135 30.8145C32.6955 30.0479 32.6955 28.8088 31.9135 28.0422Z" fill="#FEFBF8"/>
<path d="M24.9836 21.2488L24.1821 20.6508L23.6596 21.3512L24.2836 21.9629L24.9836 21.2488ZM22.1557 24.0211L22.8557 23.307L22.2557 22.7188L21.573 23.2084L22.1557 24.0211ZM14.4998 21.5664C10.0714 21.5664 6.49998 18.0371 6.49998 13.7438H4.49998C4.49998 19.1789 9.00448 23.5664 14.4998 23.5664V21.5664ZM6.49998 13.7438C6.49998 9.45057 10.0714 5.92123 14.4998 5.92123V3.92123C9.00448 3.92123 4.49998 8.30868 4.49998 13.7438H6.49998ZM14.4998 5.92123C18.9283 5.92123 22.4997 9.45057 22.4997 13.7438H24.4997C24.4997 8.30868 19.9952 3.92123 14.4998 3.92123V5.92123ZM22.4997 13.7438C22.4997 18.0371 18.9283 21.5664 14.4998 21.5664V23.5664C19.9952 23.5664 24.4997 19.1789 24.4997 13.7438H22.4997ZM32.6135 27.3281L25.6837 20.5347L24.2836 21.9629L31.2135 28.7563L32.6135 27.3281ZM25.7851 21.8468C27.4798 19.5754 28.4996 16.7801 28.4996 13.7437H26.4996C26.4996 16.3225 25.6354 18.703 24.1821 20.6508L25.7851 21.8468ZM28.4996 13.7437C28.4996 6.14609 22.2011 0 14.4998 0V2C21.1342 2 26.4996 7.28798 26.4996 13.7437H28.4996ZM14.4998 0C6.79847 0 0.5 6.14609 0.5 13.7437H2.5C2.5 7.28798 7.86534 2 14.4998 2V0ZM0.5 13.7437C0.5 21.3414 6.79847 27.4875 14.4998 27.4875V25.4875C7.86534 25.4875 2.5 20.1995 2.5 13.7437H0.5ZM14.4998 27.4875C17.5825 27.4875 20.4246 26.4927 22.7384 24.8338L21.573 23.2084C19.5828 24.6354 17.145 25.4875 14.4998 25.4875V27.4875ZM21.4556 24.7352L28.3855 31.5286L29.7856 30.1004L22.8557 23.307L21.4556 24.7352ZM28.3855 31.5286C28.9715 32.103 29.7388 32.3889 30.4995 32.3889V30.3889C30.2363 30.3889 29.9796 30.2905 29.7856 30.1004L28.3855 31.5286ZM30.4995 32.3889C31.2603 32.3889 32.0275 32.103 32.6135 31.5286L31.2135 30.1004C31.0195 30.2905 30.7627 30.3889 30.4995 30.3889V32.3889ZM32.6135 31.5286C33.7955 30.3699 33.7955 28.4868 32.6135 27.3281L31.2135 28.7563C31.5955 29.1308 31.5955 29.7258 31.2135 30.1004L32.6135 31.5286Z" fill="#00407C"/>
</svg>
