<svg width="51" height="51" viewBox="0 0 51 51" fill="none" xmlns="http://www.w3.org/2000/svg">
<g clip-path="url(#clip0_175_785)">
<path d="M9.5625 38.25H7.96875C6.27799 38.25 4.65649 37.5783 3.46094 36.3828C2.2654 35.1873 1.59375 33.5658 1.59375 31.875V25.5C1.59375 23.8092 2.2654 22.1877 3.46094 20.9922C4.65649 19.7966 6.27799 19.125 7.96875 19.125H9.5625C9.98519 19.125 10.3906 19.2929 10.6895 19.5918C10.9883 19.8907 11.1562 20.2961 11.1562 20.7187V36.6562C11.1562 37.0789 10.9883 37.4843 10.6895 37.7832C10.3906 38.0821 9.98519 38.25 9.5625 38.25Z" stroke="#00407C" stroke-width="2.75" stroke-linecap="round" stroke-linejoin="round"/>
<path d="M43.0312 38.25H41.4375C41.0148 38.25 40.6094 38.0821 40.3105 37.7832C40.0117 37.4843 39.8438 37.0789 39.8438 36.6562V20.7187C39.8438 20.2961 40.0117 19.8907 40.3105 19.5918C40.6094 19.2929 41.0148 19.125 41.4375 19.125H43.0312C44.722 19.125 46.3435 19.7966 47.5391 20.9922C48.7346 22.1877 49.4062 23.8092 49.4062 25.5V31.875C49.4062 33.5658 48.7346 35.1873 47.5391 36.3828C46.3435 37.5783 44.722 38.25 43.0312 38.25Z" stroke="#00407C" stroke-width="2.75" stroke-linecap="round" stroke-linejoin="round"/>
<path d="M7.96875 19.125C7.96875 14.4754 9.81579 10.0163 13.1035 6.72853C16.3913 3.44079 20.8504 1.59375 25.5 1.59375C30.1496 1.59375 34.6087 3.44079 37.8965 6.72853C41.1842 10.0163 43.0312 14.4754 43.0312 19.125" stroke="#00407C" stroke-width="2.75" stroke-linecap="round" stroke-linejoin="round"/>
<path d="M31.875 46.2188H36.6562C38.347 46.2187 39.9685 45.5471 41.1641 44.3516C42.3596 43.156 43.0312 41.5345 43.0312 39.8438V38.25" stroke="#00407C" stroke-width="2.75" stroke-linecap="round" stroke-linejoin="round"/>
<path d="M28.6875 49.4062H25.5C24.6546 49.4062 23.8439 49.0704 23.2461 48.4727C22.6483 47.8749 22.3125 47.0641 22.3125 46.2188C22.3125 45.3734 22.6483 44.5626 23.2461 43.9648C23.8439 43.3671 24.6546 43.0312 25.5 43.0312H28.6875C29.5329 43.0312 30.3436 43.3671 30.9414 43.9648C31.5392 44.5626 31.875 45.3734 31.875 46.2188C31.875 47.0641 31.5392 47.8749 30.9414 48.4727C30.3436 49.0704 29.5329 49.4062 28.6875 49.4062Z" stroke="#00407C" stroke-width="2.75" stroke-linecap="round" stroke-linejoin="round"/>
<path d="M19.125 32.8142C20.8682 34.4027 23.1416 35.2832 25.5 35.2832C27.8584 35.2832 30.1318 34.4027 31.875 32.8142" stroke="#00407C" stroke-width="2.75" stroke-linecap="round" stroke-linejoin="round"/>
<path d="M19.125 21.2181V24.0061" stroke="#00407C" stroke-width="2.75" stroke-linecap="round" stroke-linejoin="round"/>
<path d="M31.875 21.2181V24.0061" stroke="#00407C" stroke-width="2.75" stroke-linecap="round" stroke-linejoin="round"/>
</g>
<defs>
<clipPath id="clip0_175_785">
<rect width="51" height="51" fill="white"/>
</clipPath>
</defs>
</svg>
