<svg width="25" height="26" viewBox="0 0 25 26" fill="none" xmlns="http://www.w3.org/2000/svg">
<path fill-rule="evenodd" clip-rule="evenodd" d="M5.98405 1.37523L9.99994 5.63642C10.4976 6.16484 10.498 6.99284 10.0007 7.52169L8.05944 9.58643C9.27838 13.3131 12.0044 16.2944 15.4592 17.7042L15.8461 17.8543L17.6862 15.8971C18.2031 15.3474 19.0647 15.3236 19.6107 15.844L23.6266 20.1052C24.1242 20.6336 24.1246 21.4616 23.6273 21.9905L22.6287 23.0526C20.8048 24.9925 18.0271 25.5393 15.5875 24.4386C12.139 22.8826 9.35633 20.9809 7.23956 18.7333C5.12279 16.4857 3.33089 13.5302 1.86386 9.86678C0.867538 7.37883 1.29968 4.55847 2.94954 2.62051L3.1621 2.38294L4.0596 1.42837C4.57645 0.878652 5.43805 0.854863 5.98405 1.37523Z" stroke="#00407C" stroke-width="1.5" stroke-linecap="round" stroke-linejoin="round"/>
</svg>
